<?xml version="1.0" standalone="no"?>
<!DOCTYPE svg PUBLIC "-//W3C//DTD SVG 1.1//EN" "http://www.w3.org/Graphics/SVG/1.1/DTD/svg11.dtd" >
<svg xmlns="http://www.w3.org/2000/svg">
<metadata>Generated by IcoMoon</metadata>
<defs>
<font id="icomoon" horiz-adv-x="1024">
<font-face units-per-em="1024" ascent="960" descent="-64" />
<missing-glyph horiz-adv-x="1024" />
<glyph unicode="&#x20;" horiz-adv-x="512" d="" />
<glyph unicode="&#xe900;" glyph-name="medal" horiz-adv-x="886" d="M588.911 634.977c-2.094 6.579-7.655 11.465-14.482 12.551l-0.103 0.014-78.599 11.679-35.148 72.87c-2.948 6.11-9.080 10.259-16.186 10.295h-0.005c-7.11-0.036-13.243-4.185-16.143-10.188l-0.047-0.108-35.148-72.898-78.544-11.707c-6.937-1.104-12.5-6.002-14.55-12.464l-0.035-0.129c-0.558-1.7-0.88-3.657-0.88-5.688 0-5.178 2.091-9.868 5.475-13.27l-0.001 0.001 56.846-56.735-13.395-80.093c-0.167-0.939-0.263-2.021-0.263-3.124 0-6.089 2.908-11.498 7.412-14.914l0.046-0.034c2.924-2.198 6.616-3.521 10.617-3.521 3.075 0 5.967 0.781 8.49 2.156l-0.093-0.046 70.296 37.833 70.296-37.805c2.425-1.329 5.314-2.111 8.385-2.111 3.995 0 7.682 1.323 10.645 3.555l-0.045-0.033c4.552 3.45 7.463 8.861 7.463 14.951 0 1.112-0.097 2.202-0.283 3.261l0.016-0.112-13.45 80.093 56.846 56.735c3.375 3.4 5.46 8.084 5.46 13.255 0 2.047-0.327 4.018-0.931 5.863l0.038-0.133zM495.478 578.961c-3.365-3.39-5.445-8.061-5.445-13.217 0-1.119 0.098-2.215 0.286-3.28l-0.016 0.113 8.856-52.75-46.301 24.908c-2.432 1.338-5.331 2.126-8.413 2.126s-5.981-0.787-8.505-2.172l0.092 0.046-46.274-24.936 8.829 52.75c0.169 0.945 0.265 2.033 0.265 3.143 0 5.168-2.089 9.848-5.469 13.241l0.001-0.001-37.445 37.362 51.754 7.694c6.028 0.967 10.99 4.795 13.514 10.021l0.047 0.108 23.165 47.99 23.137-47.99c2.588-5.336 7.572-9.158 13.514-10.088l0.102-0.013 51.754-7.694-37.445-37.362zM858.721 101.085l-152.382 271.997c45.887 58.433 73.591 133.041 73.591 214.12 0 0.284 0 0.569-0.001 0.853v-0.044c-0.028 189.855-150.5 344.313-335.512 344.313-184.984 0-335.512-154.458-335.512-344.313 0-81.256 27.593-155.98 73.617-214.929l-152.382-271.997c-1.548-2.719-2.46-5.973-2.46-9.441 0-3.92 1.166-7.567 3.169-10.614l-0.045 0.073c3.304-5.058 8.938-8.354 15.343-8.354 0.855 0 1.697 0.059 2.521 0.173l-0.095-0.011 118.922 16.384 45.61-113.885c2.753-6.88 9.333-11.665 17.040-11.734h0.009c6.559 0 12.648 3.598 15.941 9.465l153.904 273.546c13.34-1.919 28.745-3.014 44.406-3.014s31.065 1.095 46.142 3.214l-1.736-0.2 0.055-0.111 153.821-273.436c3.194-5.675 9.179-9.445 16.044-9.445 0.402 0 0.801 0.013 1.197 0.038l-0.054-0.003c7.215 0.555 13.227 5.176 15.786 11.555l0.044 0.124 45.637 113.885 118.922-16.384c0.729-0.103 1.57-0.162 2.425-0.162 6.404 0 12.039 3.296 15.3 8.284l0.043 0.070c1.956 2.975 3.12 6.623 3.12 10.542 0 3.467-0.911 6.721-2.506 9.536l0.050-0.096zM232.974 25.392l-33.238 82.889 29.807 49.927c1.712 2.816 2.726 6.221 2.726 9.863 0 6.747-3.479 12.681-8.74 16.107l-0.074 0.045c-2.741 1.748-6.082 2.787-9.665 2.787-6.659 0-12.48-3.585-15.64-8.929l-0.046-0.084-30.111-50.48-87.261-12.039 127.723 227.965c40.98-41.838 92.807-72.898 150.933-88.633l2.335-0.538-128.775-228.878zM444.416 281.503c-164.67 0-298.621 137.493-298.621 306.508 0 168.988 133.95 306.48 298.621 306.48s298.621-137.493 298.621-306.48c0-169.015-133.95-306.508-298.621-306.508zM720.841 127.543l-30.111 50.453c-3.206 5.429-9.027 9.014-15.686 9.014-3.584 0-6.925-1.038-9.739-2.83l0.073 0.044c-5.336-3.471-8.814-9.406-8.814-16.152 0-3.642 1.013-7.047 2.774-9.948l-0.048 0.085 29.807-49.927-33.211-82.889-128.747 228.878c60.463 16.281 112.29 47.35 153.211 89.14l0.057 0.058 127.696-227.965-87.261 12.039zM445.855 837.369c-43.405-0.008-84.092-11.635-119.124-31.94l1.142 0.611c-5.694-3.349-9.455-9.445-9.455-16.42 0-3.391 0.889-6.575 2.447-9.33l-0.049 0.095c5.009-9.050 16.329-12.288 25.24-7.196 28.666 16.663 63.082 26.502 99.795 26.513h0.003c112.363 0 203.804-92.935 203.804-207.125 0-31.218-6.642-61.219-19.788-89.116-1.155-2.378-1.83-5.173-1.83-8.126 0-7.417 4.26-13.84 10.466-16.954l0.109-0.050c2.327-1.133 5.062-1.795 7.952-1.795 7.37 0 13.734 4.306 16.714 10.539l0.048 0.112c14.762 30.656 23.387 66.656 23.387 104.671 0 0.252 0 0.505-0.001 0.757v-0.039c0 134.974-108.046 244.791-240.861 244.791zM622.758 452.207c-3.471 3.281-8.167 5.298-13.334 5.298-5.376 0-10.242-2.184-13.76-5.713l-0.416-0.416c-3.376-3.351-5.465-7.993-5.465-13.123 0-5.279 2.213-10.042 5.762-13.41l0.008-0.008c3.453-3.29 8.138-5.314 13.296-5.314 0.035 0 0.070 0 0.105 0h-0.005c4.982 0 9.963 1.882 13.699 5.646l0.498 0.498c3.352 3.347 5.425 7.972 5.425 13.083 0 5.3-2.23 10.079-5.803 13.45l-0.009 0.008zM568.099 399.955c-3.148 5.89-9.256 9.829-16.285 9.829-3.311 0-6.417-0.874-9.102-2.404l0.091 0.048c-28.394-16.25-62.408-25.837-98.66-25.849h-0.003c-112.917 0-204.8 93.876-204.8 209.256 0 0.147-0.001 0.321-0.001 0.496 0 31.2 6.758 60.822 18.889 87.482l-0.54-1.325c1.061 2.309 1.68 5.010 1.68 7.856 0 7.597-4.41 14.163-10.81 17.279l-0.114 0.050c-2.261 1.064-4.91 1.685-7.705 1.685-7.531 0-14.009-4.51-16.88-10.977l-0.047-0.118c-13.707-29.948-21.698-64.966-21.698-101.849 0-0.194 0-0.387 0.001-0.58v0.030c0-136.386 108.572-247.338 242.024-247.338 42.859 0.026 83.063 11.367 117.795 31.197l-1.17-0.615c5.813 3.382 9.659 9.583 9.659 16.682 0 3.36-0.861 6.518-2.375 9.267l0.050-0.099zM292.947 756.335c-3.443 3.126-8.036 5.040-13.076 5.040-5.515 0-10.495-2.292-14.040-5.975l-0.449-0.449c-3.158-3.319-5.101-7.819-5.101-12.773 0-5.47 2.369-10.387 6.136-13.781l0.017-0.015c3.681-3.321 8.358-4.982 13.008-4.982 0.023 0 0.050 0 0.078 0 5.522 0 10.504 2.314 14.029 6.025l0.008 0.008 0.332 0.36c3.189 3.325 5.152 7.846 5.152 12.827 0 5.442-2.344 10.336-6.078 13.728l-0.015 0.014z" />
<glyph unicode="&#xe901;" glyph-name="noun-dialogue-1630531" d="M978.154 536.269h-685.144c-25.307-0.029-45.787-21.855-45.846-48.772v-408.488c0.059-26.917 20.539-48.742 45.846-48.772h514.809c9.947-54.272 65.975-94.237 114.864-94.237 17.847 0 35.401 5.091 50.849 14.629 4.798 3.099 7.93 8.421 7.93 14.474 0 0.065 0 0.129-0.001 0.194v-0.010c0.001 0.052 0.001 0.113 0.001 0.174 0 6.041-3.119 11.353-7.834 14.414l-0.067 0.041c-17.001 11.575-29.072 29.305-33.041 49.92l-0.079 0.49h37.8c25.22 0.088 45.67 21.826 45.758 48.684v408.488c-0.029 26.917-20.539 48.742-45.846 48.772zM992.168 79.097c0-3.979-1.463-7.753-4.096-10.533-2.474-2.681-5.997-4.362-9.913-4.389h-55.711c-8.777 0-15.916-7.578-15.916-16.94 0.088-28.087 9.86-55.208 27.443-76.186-3.431-0.651-7.377-1.024-11.41-1.024-0.041 0-0.082 0-0.124 0h0.006c-37.244 0-84.553 36.425-84.553 77.297 0 9.362-7.109 16.969-15.916 16.969h-528.969c-3.902 0.019-7.413 1.678-9.882 4.322l-0.007 0.008c-2.539 2.736-4.096 6.413-4.096 10.454 0 0.027 0 0.055 0 0.082v-0.004 408.342c0 8.221 6.261 14.863 13.985 14.921h685.144c7.724 0 14.014-6.671 14.014-14.921v-408.43zM620.632 218.478h-252.577c-8.251 0-14.95-7.899-14.95-17.642 0-9.772 6.7-17.671 14.95-17.671h252.577c8.251 0 14.95 7.899 14.95 17.671 0 9.743-6.7 17.642-14.95 17.642zM866.655 324.418h-497.518c-8.865 0-16.033-7.899-16.033-17.671 0-9.743 7.168-17.642 16.033-17.642h497.576c8.865 0 16.033 7.899 16.033 17.642 0 9.772-7.168 17.671-16.033 17.671h-0.059zM697.022 960h-652.551c-24.547-0.059-44.412-20.831-44.471-46.49v-419.109c0.059-25.659 19.924-46.431 44.471-46.49h35.050c-4.073-19.125-15.302-35.096-30.688-45.3l-0.266-0.166c-4.826-3.027-7.988-8.319-7.988-14.349 0-0.047 0-0.094 0.001-0.141v0.007c0-5.939 3.043-11.469 7.987-14.453 13.915-8.623 30.785-13.746 48.85-13.78h0.009c51.639 0 112.055 45.787 112.055 104.887 0.002 0.106 0.004 0.23 0.004 0.355 0 8.927-7.139 16.186-16.019 16.38h-0.018c-8.885-0.211-16.008-7.463-16.008-16.38 0-0.125 0.001-0.25 0.004-0.374v0.019c0-37.742-44.559-71.446-79.989-71.446-3.16-0.029-6.32 0.205-9.45 0.644 16.238 19.661 25.22 44.763 25.278 70.744 0.002 0.097 0.003 0.211 0.003 0.326 0 8.916-7.122 16.169-15.987 16.379h-52.829c-6.932 0.226-12.466 5.9-12.466 12.867 0 0.095 0.001 0.189 0.003 0.284v-0.014 419.079c-0.001 0.054-0.001 0.118-0.001 0.182 0 6.966 5.533 12.64 12.444 12.866l0.021 0.001h652.551c6.945-0.211 12.494-5.891 12.494-12.868 0-0.064 0-0.127-0.001-0.191v0.010-384.439c-0.002-0.106-0.004-0.23-0.004-0.355 0-8.916 7.122-16.169 15.988-16.379h0.020c8.885 0.211 16.008 7.463 16.008 16.38 0 0.125-0.001 0.25-0.004 0.374v-0.019 384.439c-0.059 25.688-19.953 46.46-44.471 46.519zM353.134 854.089c-39-0.059-70.597-33.529-70.656-74.811 0-8.66 6.641-15.682 14.804-15.682 8.192 0 14.804 7.022 14.804 15.682 0 15.506 7.812 29.872 20.509 37.625 12.727 7.782 28.379 7.782 41.077 0 12.698-7.753 20.539-22.089 20.539-37.625 0-15.682-7.402-25.073-20.86-40.199-15.623-17.701-35.021-39.614-35.021-81.218 0-8.631 6.641-15.653 14.804-15.653 8.192 0 14.804 7.022 14.804 15.653 0 29.228 12.493 43.388 27.004 59.86 14.512 16.443 28.789 32.651 28.789 61.557-0.059 41.253-31.598 74.693-70.597 74.781zM400.004 624.538c0-16.158-13.099-29.257-29.257-29.257s-29.257 13.099-29.257 29.257c0 16.158 13.099 29.257 29.257 29.257s29.257-13.099 29.257-29.257z" />
<glyph unicode="&#xe902;" glyph-name="noun-launch-1437501" horiz-adv-x="761" d="M659.251 960h-568.496c-46.947-0.083-84.975-38.152-84.992-85.107v-853.755c0 0 0 0 0 0 0-46.969 38.034-85.055 84.984-85.138h568.504c46.947 0.083 84.975 38.152 84.992 85.107v853.813c-0.033 46.944-38.055 84.997-84.984 85.080h-0.008zM716.39 21.080c-0.033-31.55-25.592-57.119-57.134-57.168h-568.501c-31.547 0.050-57.106 25.619-57.139 57.165v853.814c0 31.539 25.629 57.198 57.139 57.198h568.496c31.51 0 57.139-25.659 57.139-57.198v-853.811zM375.018 125.557c-37.437-0.796-67.481-31.332-67.481-68.886s30.044-68.090 67.407-68.885l0.074-0.001c37.437 0.796 67.481 31.332 67.481 68.886s-30.044 68.090-67.407 68.885l-0.074 0.001zM375.018 11.717c-23.982 1.093-43.011 20.801-43.011 44.954s19.029 43.861 42.913 44.95l0.098 0.004c23.982-1.093 43.011-20.801 43.011-44.954s-19.029-43.861-42.913-44.95l-0.098-0.004zM649.304 851.28h-548.571c-0.017 0-0.038 0-0.059 0-6.593 0-11.937-5.344-11.937-11.937 0-0.010 0-0.021 0-0.031v0.002-675.928c0-6.583 5.383-11.937 11.995-11.937h548.571c6.586 0.017 11.92 5.351 11.937 11.935v675.959c0 6.593-5.344 11.937-11.937 11.937v0zM637.367 175.353h-524.727v652.025h524.727v-652.054zM289.733 880.713h170.569c6.609 0 11.966 5.357 11.966 11.966s-5.357 11.966-11.966 11.966h-170.569c-6.349-0.324-11.375-5.551-11.375-11.952s5.025-11.628 11.346-11.95l0.029-0.001zM198.012 317.045c1.17 0 2.341 0.293 2.955 0.761 1.287 0.439 6.817 1.697 11.82 2.809 18.929 4.213 54.126 12.083 75.045 23.552 10.357 5.676 16.472 13.107 18.139 22.060 2.633 13.926-6.729 25.512-7.87 26.887l-14.921 15.77-15.828 14.98c-0.38 0.293-9.684 8.075-21.65 8.075-7.607 0-18.52-3.218-26.975-18.637-11.527-21.065-19.368-56.466-23.611-75.542-0.965-4.272-2.253-10.152-2.516-11.030-0.594-0.948-0.947-2.101-0.947-3.335 0-3.506 2.842-6.349 6.349-6.349 0.004 0 0.007 0 0.011 0h-0.001zM207.55 335.038c4.067 18.403 11.644 52.663 22.352 72.148 4.359 7.958 9.655 11.995 15.799 11.995 6.466 0 12.376-4.242 13.253-4.915l15.214-14.395 14.395-15.214c0.088-0.088 6.437-8.046 4.915-16.091-0.936-4.974-4.915-9.45-11.761-13.224-19.28-10.562-53.307-18.169-71.739-22.294l-3.043-0.673 0.585 2.633zM228.059 348.818c1.083 0.527 2.984 1.2 5.354 2.048 8.251 3.013 23.406 8.485 32.914 14.599 5.383 3.452 8.485 7.519 9.275 12.083 0.11 0.638 0.173 1.373 0.173 2.123 0 2.884-0.932 5.551-2.51 7.716l0.026-0.037-5.734 6.144-5.793 5.383s-3.101 2.341-7.519 2.341c-3.686 0-9.157-1.638-14.248-9.45-6.056-9.421-11.557-24.664-14.512-32.856l-1.609-4.476c-0.673-1.17-0.878-1.814-0.878-2.516 0.014-0.964 0.414-1.831 1.053-2.457l0.001-0.001c1.17-1.2 3.599-0.878 4.008-0.673zM234.759 363.915c4.155 11.030 7.782 18.9 11.088 24.049 2.662 4.096 5.559 6.29 8.397 6.29 0.761 0 1.434-0.176 1.872-0.293h0.702l5.822-5.413 4.886-5.179c0.673-0.936 1.551-2.633 1.17-4.681-0.41-2.516-2.487-4.974-6.144-7.314-5.208-3.365-13.078-7.022-24.108-11.176l-5.939-2.253 2.253 5.968zM209.335 474.419c0.351-0.059 31.305-6.144 49.386-11.030-0.103-0.463-0.162-0.995-0.162-1.541 0-2.021 0.81-3.853 2.123-5.189l-0.001 0.001 9.070-9.099-1.609-3.716c-0.402-0.889-0.636-1.927-0.636-3.020 0-2.050 0.824-3.908 2.158-5.26l39.204-39.204c1.358-1.343 3.225-2.172 5.286-2.172 1.082 0 2.111 0.229 3.041 0.64l-0.048-0.019 3.716 1.668 8.923-8.953c1.201-1.16 2.798-1.916 4.569-2.047l0.024-0.001c4.564-18.373 9.918-47.543 9.947-47.865 0.649-3.497 3.676-6.11 7.313-6.11 0.73 0 1.435 0.105 2.102 0.301l-0.053-0.013c1.112 0.293 27.794 7.958 48.040 27.121 15.214 14.395 19.807 50.322 21.153 73.084 37.625 21.943 78.117 48.040 99.913 69.837 50.732 50.82 33.616 145.788 29.462 165.069 0 0.016 0 0.034 0 0.052 0 1.216-0.247 2.375-0.695 3.428l0.022-0.057c-1.083 2.604-6.173 9.157-11.82 9.157h-0.205c-17.681 3.891-38.009 6.147-58.854 6.202h-0.041c-45.846 0-82.417-12.376-105.823-35.811-21.299-21.299-46.811-60.855-68.462-97.894-23.318-0.965-60.153-4.974-75.074-20.363-19.427-20.041-27.355-46.665-27.677-47.748-0.186-0.622-0.293-1.336-0.293-2.075 0-3.619 2.567-6.639 5.979-7.337l0.048-0.008zM391.519 369.708c-11.323-10.708-25.454-17.437-34.172-20.86-3.54 19.293-6.698 33.563-10.241 47.681l1.142-5.375c12.581 6.466 34.465 17.964 59.041 31.89-2.487-26.302-8.221-46.226-15.77-53.336zM480.666 670.822c20.173-0.072 39.788-2.296 58.677-6.453l-1.831 0.338 0.029-0.029c3.899-17.396 6.132-37.376 6.132-57.877 0-2.683-0.038-5.357-0.114-8.021l0.009 0.392c-17.436 5.703-32.347 15.018-44.472 27.123l0.001-0.001c-12.057 12.093-21.333 26.965-26.782 43.572l-0.222 0.782c2.926 0.088 5.822 0.176 8.572 0.176zM385.317 639.342c19.983 19.983 48.391 27.794 73.728 30.369 5.851-19.866 16.443-37.888 31.013-52.458 14.629-14.629 32.709-25.307 52.604-31.13-2.604-26.507-10.737-54.096-30.427-73.787-39.614-39.673-150.323-97.485-175.777-110.504l-8.777 8.777c-1.339 1.338-3.189 2.165-5.231 2.165-1.093 0-2.132-0.237-3.066-0.663l0.046 0.019-3.716-1.668-31.92 31.978 1.668 3.745c0.396 0.883 0.627 1.915 0.627 3 0 2.060-0.832 3.926-2.178 5.28v0l-8.865 8.865c12.99 25.512 70.627 136.251 110.299 176.011zM241.957 521.231c8.602 8.894 32.388 13.546 55.501 15.272-6.667-10.946-17.37-30.432-27.699-50.144l-4.484-9.394c-9.818 2.878-24.834 6.454-40.025 9.547l-4.592 0.781c3.569 8.689 10.445 22.733 21.27 33.938zM427.973 498.498c15.009 0 29.169 5.851 39.79 16.501 10.65 10.65 16.472 24.81 16.472 39.907 0 15.067-5.851 29.257-16.501 39.907-10.114 10.175-24.119 16.472-39.594 16.472-0.069 0-0.137 0-0.206 0h0.011c-15.067 0-29.257-5.851-39.877-16.53-10.194-10.161-16.501-24.216-16.501-39.745 0-0.036 0-0.073 0-0.109v0.006c0-15.067 5.851-29.257 16.501-39.877 10.679-10.65 24.839-16.56 39.907-16.56zM397.107 585.713c7.853 7.915 18.735 12.815 30.762 12.815 0.026 0 0.053 0 0.079 0h-0.004c11.644 0 22.557-4.535 30.779-12.756 8.251-8.221 12.785-19.222 12.785-30.866 0-11.674-4.506-22.645-12.727-30.866-7.844-7.915-18.719-12.815-30.738-12.815-0.025 0-0.049 0-0.074 0h0.004c-11.674 0-22.645 4.564-30.896 12.815-7.88 7.852-12.756 18.715-12.756 30.716 0 0.053 0 0.106 0 0.158v-0.008c0 11.644 4.535 22.587 12.785 30.808zM427.944 529.101c0.056 0 0.122-0.001 0.188-0.001 7.078 0 13.497 2.824 18.191 7.408l-0.005-0.005c4.681 4.672 7.578 11.131 7.578 18.266 0 0.027 0 0.055 0 0.082v-0.004c0 0.025 0 0.054 0 0.083 0 7.158-2.908 13.636-7.606 18.319l-0.001 0.001c-4.756 4.532-11.209 7.321-18.314 7.321-7.134 0-13.612-2.812-18.384-7.389l0.009 0.009c-4.699-4.675-7.607-11.145-7.607-18.295 0-0.017 0-0.034 0-0.051v0.003c0-6.905 2.692-13.458 7.607-18.344 4.681-4.681 11.41-7.402 18.344-7.402zM415.715 567.077c3.118 3.168 7.451 5.131 12.244 5.131 4.763 0 9.074-1.939 12.185-5.071l0.001-0.001c3.145-3.127 5.091-7.457 5.091-12.241 0-0.017 0-0.033 0-0.050v0.003c0-0.025 0-0.054 0-0.083 0-4.744-1.923-9.038-5.032-12.146v0c-6.203-6.173-18.286-6.144-24.488 0.029-3.151 3.115-5.102 7.437-5.102 12.215s1.951 9.1 5.1 12.213l0.002 0.002z" />
<glyph unicode="&#xe903;" glyph-name="noun-online-tutoring-2018893" horiz-adv-x="1141" d="M1028.33 949.76h-916.246c-45.641 0-82.827-37.537-82.827-83.617v-612.703c0-42.657 33.821-80.223 76.069-81.92h333.034v-92.16h-106.496c-37.186 0-65.946-30.72-65.946-66.56 0-0.070 0-0.152 0-0.235 0-36.497 29.479-66.109 65.925-66.325h476.737c37.186 0 65.916 30.72 65.916 66.56 0 0.070 0 0.153 0 0.235 0 36.487-29.462 66.093-65.895 66.325h-104.85v92.16h326.276c45.641 0 82.827 37.537 82.827 83.617v611.006c-1.668 46.080-38.883 83.617-84.524 83.617zM112.084 915.617h917.943c27.063 0 49.035-22.177 49.035-49.474v-547.84h-657.613l-3.365 131.394c0 11.966 3.365 22.206 11.82 30.72 8.455 8.543 18.608 11.966 30.427 11.966 23.669 0 49.035 8.514 67.613 22.177l143.711 110.943c6.729 5.12 8.455 15.36 3.365 23.874l-8.455 11.966 155.56 104.097c8.455 5.12 10.152 15.36 5.061 23.903-1.668 3.394-5.061 5.12-8.426 6.817h175.806c10.123 0 16.911 6.817 16.911 17.057s-6.788 17.086-16.911 17.086h-456.47c-10.152 0-16.911-6.846-16.911-17.086s6.758-17.057 16.911-17.057h268.785c-1.697 0-1.697 0-3.365-1.697l-157.228-105.823-8.455 11.937c-5.061 6.846-15.214 10.24-23.669 5.12l-179.2-114.337h-121.71c-7.253-0.215-13.297-5.146-15.186-11.822l-0.028-0.115-21.972-61.44h-6.758l-21.972 61.44c-1.917 6.791-7.961 11.722-15.19 11.936l-0.024 0.001c-57.49 0-103.131-46.080-103.131-104.097v-168.96h-65.916v547.84c0 27.297 21.943 49.474 49.006 49.474zM218.58 389.983c-10.123 0-16.881-6.846-16.881-17.086v-54.594h-38.912v168.96c0 34.114 25.366 63.137 57.49 68.257l21.972-61.44c1.917-6.791 7.961-11.722 15.19-11.936l0.024-0.001h32.124c7.253 0.215 13.297 5.146 15.186 11.822l0.028 0.115 21.972 61.44h114.981c3.265 0.084 6.214 1.37 8.434 3.431l-0.008-0.007 170.745 110.914c1.697-1.697 18.608-27.297 16.911-25.6l-131.862-100.674c-13.517-10.24-30.427-15.36-47.338-15.36-20.275 0-38.883-8.543-54.096-22.206-15.214-15.36-21.943-34.114-21.943-56.32l3.365-131.394h-153.834v54.594c3.365 10.24-5.091 17.086-13.546 17.086zM840.704 12.8c0-18.783-15.214-32.417-32.124-32.417h-476.716c-17.756 0.066-32.125 14.476-32.125 32.241 0 0.062 0 0.124 0.001 0.185v-0.009c0 17.057 15.214 32.417 32.124 32.417h476.716c18.578 0 32.124-13.634 32.124-32.417zM669.959 79.36h-199.504v92.16h197.778v-92.16h1.697zM1028.359 205.663h-921.366c-23.669 1.697-43.944 23.874-43.944 49.474v29.023h1014.287v-29.023c0-27.297-21.972-49.474-49.035-49.474zM994.538 719.36h-214.689c-10.152 0-16.911-6.817-16.911-17.057s6.729-17.086 16.911-17.086h214.689c10.123 0 16.911 6.846 16.911 17.086s-6.788 17.057-16.911 17.057zM994.538 608.417h-297.545c-10.123 0-16.881-6.817-16.881-17.057s6.729-17.057 16.881-17.057h299.242c10.123 0 16.881 6.817 16.881 17.057-1.668 10.24-8.455 17.057-18.578 17.057zM994.538 499.2h-429.407c-10.123 0-16.881-6.817-16.881-17.057s6.729-17.086 16.881-17.086h429.407c10.123 0 16.911 6.846 16.911 17.086s-6.788 17.057-16.911 17.057zM274.373 622.080c49.035 0 87.918 39.263 87.918 88.737 0 49.503-38.912 88.766-87.918 88.766s-87.888-39.263-87.888-88.766c0-47.777 38.883-88.737 87.888-88.737zM274.373 767.137c30.427 0 54.126-23.874 54.126-54.594s-23.698-54.623-54.126-54.623-54.067 23.903-54.067 54.623c0 28.994 23.698 54.594 54.126 54.594z" />
<glyph unicode="&#xe904;" glyph-name="do-not-disturb-rounded-sign" d="M512 960c-281.6 0-512-230.4-512-512s230.4-512 512-512 512 230.4 512 512-230.4 512-512 512zM102.4 448c0 225.28 184.32 409.6 409.6 409.6 92.16 0 179.2-30.72 250.88-87.040l-573.44-573.44c-56.32 71.68-87.040 158.72-87.040 250.88zM512 38.4c-92.16 0-179.2 30.72-250.88 87.040l573.44 573.44c56.32-71.68 87.040-158.72 87.040-250.88 0-225.28-184.32-409.6-409.6-409.6z" />
<glyph unicode="&#xe905;" glyph-name="exclamation-mark" d="M512 960c-282.753 0-512-229.247-512-512 0-282.785 229.247-512 512-512 282.785 0 512 229.182 512 512 0 282.753-229.218 512-512 512zM512 32.002c-229.759 0-415.998 186.24-415.998 415.998s186.24 415.998 415.998 415.998 415.998-186.24 415.998-415.998-186.24-415.998-415.998-415.998zM512.032 735.457c-36.671 0-64.417-19.137-64.417-50.048v-283.519c0-30.943 27.743-50.016 64.417-50.016 35.776 0 64.417 19.871 64.417 50.016v283.519c-0.004 30.177-28.642 50.048-64.417 50.048zM512.032 288c-35.232 0-63.906-28.674-63.906-63.934 0-35.2 28.674-63.873 63.906-63.873s63.873 28.674 63.873 63.873c-0.004 35.264-28.642 63.934-63.873 63.934z" />
<glyph unicode="&#xe906;" glyph-name="lock" d="M461.584 251.374l-13.458-121.020c-0.666-6.020 1.27-12.062 5.312-16.584 4.042-4.52 9.834-7.104 15.896-7.104h85.334c6.062 0 11.854 2.584 15.896 7.104s5.98 10.562 5.312 16.584l-13.458 121.020c21.854 15.896 34.916 41.042 34.916 68.626 0 47.062-38.27 85.334-85.334 85.334s-85.334-38.272-85.334-85.334c0-27.584 13.064-52.73 34.918-68.626zM512 362.666c23.52 0 42.666-19.146 42.666-42.666 0-16.354-9.292-31-24.25-38.25-8.146-3.958-12.916-12.584-11.916-21.562l12.334-110.854h-37.666l12.334 110.854c1 8.98-3.77 17.604-11.916 21.562-14.958 7.25-24.25 21.896-24.25 38.25-0.002 23.52 19.144 42.666 42.664 42.666zM874.666 576h-64v85.334c0 164.686-133.978 298.666-298.666 298.666s-298.666-133.98-298.666-298.666v-85.334h-64c-11.792 0-21.334-9.542-21.334-21.334v-533.334c0-47.062 38.27-85.332 85.334-85.332h597.334c47.062 0 85.332 38.27 85.332 85.334v533.332c0 11.792-9.542 21.334-21.334 21.334zM256 661.334c0 141.166 114.834 256 256 256s256-114.834 256-256v-85.334h-42.666v85.334c0 117.626-95.708 213.334-213.334 213.334s-213.334-95.71-213.334-213.334v-85.334h-42.666v85.334zM682.666 661.334v-85.334h-341.332v85.334c0 94.104 76.562 170.666 170.666 170.666s170.666-76.562 170.666-170.666zM853.334 21.334c0-23.52-19.146-42.666-42.666-42.666h-597.334c-23.52 0-42.666 19.146-42.666 42.666v512h682.666v-512z" />
<glyph unicode="&#xe907;" glyph-name="support" d="M934 540h-31.688c-7.404 97.452-50.442 187.332-121.772 254.106l43.216 43.228c-22.456 13.378-111.632 122.666-311.756 122.666-189.41 0-299.326-115.26-311.756-122.666l43.216-43.228c-71.33-66.774-114.366-156.654-121.772-254.106h-31.688c-49.706 0-90-40.294-90-90v-184c0-49.706 40.294-90 90-90h150v364h-58.308c7.314 81.324 44.15 156.080 104.198 211.666l41.386-41.392c9.682 5.322 72.458 68.73 184.724 68.73 112.442 0 173.73-62.686 184.724-68.73l41.386 41.392c60.048-55.588 96.884-130.342 104.198-211.666h-58.308v-363.98h56.964c-13.938-68.402-74.532-120.020-146.964-120.020h-30v60h-152c-49.628 0-90-40.372-90-90s40.372-90 90-90h152v60h30c105.51 0 192.254 78.5 206.968 180h33.032c49.706 0 90 40.294 90 90v184c0 49.706-40.294 90-90 90z" />
<glyph unicode="&#xe908;" glyph-name="check-mark-black-outline" d="M1019.819 711.543l-634.909-634.909c-5.592-5.592-14.647-5.592-20.227 0l-360.502 360.515c-5.579 5.566-5.579 14.621 0 20.214l87.597 87.597c5.592 5.579 14.647 5.579 20.227 0l262.804-262.791 537.199 537.199c5.605 5.579 14.634 5.579 20.227 0l87.584-87.597c5.592-5.579 5.592-14.621 0-20.227z" />
<glyph unicode="&#xe909;" glyph-name="left-arrow" d="M703.305-2.878c6.35-6.35 14.288-9.526 23.020-9.526s16.67 3.175 23.020 9.526c12.701 12.701 12.701 33.34 0 46.040l-404.837 404.837 404.837 404.837c12.701 12.701 12.701 33.34 0 46.040s-33.34 12.701-46.040 0l-428.651-427.857c-12.701-12.701-12.701-33.34 0-46.040l428.651-427.857z" />
<glyph unicode="&#xe90a;" glyph-name="small-calendar" d="M938.701 864h-138.701v64c0 17.673-14.327 32-32 32s-32-14.327-32-32v0-64h-192v64c0 17.673-14.327 32-32 32s-32-14.327-32-32v0-64h-192v64c0 17.673-14.327 32-32 32s-32-14.327-32-32v0-64h-138.65c-0.015 0-0.033 0-0.051 0-47.109 0-85.299-38.19-85.299-85.299v0-757.35c0-47.138 38.213-85.35 85.35-85.35h853.35c47.109 0 85.299 38.19 85.299 85.299 0 0.018 0 0.036 0 0.054v-0.003 757.35c0 47.109-38.19 85.299-85.299 85.299v0zM960 21.35c0 0 0 0 0 0 0-11.773-9.53-21.321-21.296-21.35h-853.353c-11.792 0-21.35 9.559-21.35 21.35v0 757.35c0.029 11.769 9.577 21.299 21.35 21.299 0 0 0 0 0 0h138.65v-64c0-17.673 14.327-32 32-32s32 14.327 32 32v0 64h192v-64c0-17.673 14.327-32 32-32s32 14.327 32 32v0 64h192v-64c0-17.673 14.327-32 32-32s32 14.327 32 32v0 64h138.701c11.752-0.029 21.27-9.548 21.299-21.296v-0.003zM224 576h128v-96h-128v96zM224 416h128v-96h-128v96zM224 256h128v-96h-128v96zM448 256h128v-96h-128v96zM448 416h128v-96h-128v96zM448 576h128v-96h-128v96zM672 256h128v-96h-128v96zM672 416h128v-96h-128v96zM672 576h128v-96h-128v96z" />
<glyph unicode="&#xe90b;" glyph-name="notification" horiz-adv-x="853" d="M850.293 96.322l-73.405 121.958c-32.475 53.268-51.703 117.7-51.707 186.623v107.082c-0.166 134.375-88.937 247.971-211.019 285.513l-2.119 0.561v76.687c0 47.085-38.17 85.255-85.255 85.255s-85.255-38.17-85.255-85.255v0-76.73c-124.2-38.102-212.972-151.699-213.138-286.054v-106.973c-0.125-68.996-19.483-133.444-52.996-188.302l0.905 1.594-73.234-121.915c-1.936-3.147-3.082-6.96-3.082-11.041 0-11.771 9.543-21.314 21.314-21.314 0.005 0 0.009 0 0.014 0h810.648c0.009 0 0.020 0 0.030 0 11.771 0 21.314 9.543 21.314 21.314 0 4.063-1.137 7.86-3.11 11.092l0.053-0.094zM292.297 21.34c24.316-50.751 75.276-85.176 134.277-85.176s109.961 34.425 133.891 84.284l0.386 0.892z" />
<glyph unicode="&#xe90c;" glyph-name="history" horiz-adv-x="1128" d="M616.448 960c-0.001 0-0.002 0-0.002 0-282.25 0-511.157-228.388-511.998-510.441v-0.080c-0.077-3.566-0.121-7.769-0.121-11.982 0-52.197 6.748-102.817 19.418-151.037l-0.922 4.128-68.949 40.164c-5.416 3.461-12.020 5.517-19.105 5.517-19.794 0-35.84-16.046-35.84-35.84 0-13.581 7.554-25.398 18.69-31.478l0.187-0.094 161.564-94.208 0.967-0.398c1.494-0.791 3.262-1.542 5.097-2.147l0.25-0.071c0.959-0.381 2.21-0.789 3.487-1.133l0.267-0.061c1.333-0.264 2.934-0.467 4.563-0.564l0.102-0.005c1.081 0 2.219-0.455 3.3-0.455s1.195 0 1.82 0 1.138 0 1.707 0 1.707 0.455 2.56 0.626c1.944 0.325 3.63 0.74 5.266 1.267l-0.26-0.072c1.641 0.546 2.995 1.104 4.304 1.741l-0.208-0.091c1.661 0.785 3.059 1.581 4.392 2.468l-0.125-0.078c2.72 1.753 5.059 3.785 7.077 6.104l0.034 0.040c0.986 1.090 1.921 2.277 2.771 3.527l0.073 0.114c0.455 0.683 1.138 1.252 1.536 1.934s0.341 1.195 0.569 1.764 1.252 1.82 1.65 2.901l64.284 159.289c1.653 3.973 2.612 8.587 2.612 13.426 0 19.776-16.031 35.807-35.807 35.807-14.937 0-27.738-9.146-33.108-22.143l-0.087-0.238-32.996-81.749c-12.196 42.415-19.21 91.133-19.21 141.489 0 3.538 0.035 7.069 0.104 10.591l-0.008-0.527c0 243.182 197.138 440.32 440.32 440.32s440.32-197.138 440.32-440.32c0-243.182-197.138-440.32-440.32-440.32v0c-19.794 0-35.84-16.046-35.84-35.84s16.046-35.84 35.84-35.84v0c282.77 0 512 229.23 512 512s-229.23 512-512 512v0zM602.681 379.164c3.364-1.313 7.254-2.136 11.319-2.274l0.059-0.002c0.796 0 1.593-0.455 2.389-0.455 4.399 0.081 8.571 0.951 12.414 2.473l-0.24-0.084c1.267 0.517 2.296 1.013 3.292 1.562l-0.163-0.082c3.152 1.593 5.866 3.489 8.273 5.711l-0.024-0.022c0.569 0.455 1.252 0.683 1.82 1.195l223.687 223.687c6.486 6.486 10.498 15.447 10.498 25.344 0 19.795-16.047 35.842-35.842 35.842-9.897 0-18.858-4.012-25.344-10.498l-206.734-206.677-185.515 77.71c-3.992 1.668-8.629 2.637-13.494 2.637-19.794 0-35.84-16.046-35.84-35.84 0-14.656 8.797-27.258 21.399-32.812l0.23-0.090 207.701-86.983z" />
<glyph unicode="&#xe90d;" glyph-name="file" horiz-adv-x="802" d="M614.4 584.55h-426.701c-9.43 0-17.075-7.645-17.075-17.075s7.645-17.075 17.075-17.075v0h426.65c9.43 0 17.075 7.645 17.075 17.075s-7.645 17.075-17.075 17.075v0zM187.699 686.899h170.65c9.43 0 17.075 7.645 17.075 17.075s-7.645 17.075-17.075 17.075v0h-170.65c-9.43 0-17.075-7.645-17.075-17.075s7.645-17.075 17.075-17.075v0zM614.4 448h-426.701c-9.43 0-17.075-7.645-17.075-17.075s7.645-17.075 17.075-17.075v0h426.65c9.43 0 17.075 7.645 17.075 17.075s-7.645 17.075-17.075 17.075v0zM614.4 311.45h-426.701c-9.43 0-17.075-7.645-17.075-17.075s7.645-17.075 17.075-17.075v0h426.65c9.43 0 17.075 7.645 17.075 17.075s-7.645 17.075-17.075 17.075v0zM614.4 174.95h-426.701c-9.43 0-17.075-7.645-17.075-17.075s7.645-17.075 17.075-17.075v0h426.65c9.43 0 17.075 7.645 17.075 17.075s-7.645 17.075-17.075 17.075v0zM552.96 960h-552.96v-1024h802.15v775.066zM563.2 901.734l180.685-180.685h-180.685zM34.15-29.85v955.699h494.95v-238.899h238.899v-716.8z" />
<glyph unicode="&#xe90e;" glyph-name="meter" horiz-adv-x="1379" d="M713.745 235.773c31.116 0 56.341 25.225 56.341 56.341s-25.225 56.341-56.341 56.341v0l-255.155 187.711 198.883-247.501c1.939-29.579 26.381-52.842 56.267-52.893h0.005zM408.386 69.508h562.445v-133.508h-562.445v133.508zM1177.231 758.014c-124.859 125.184-297.524 202.635-488.279 202.635-380.86 0-689.609-308.748-689.609-689.609 0-123.007 32.206-238.493 88.645-338.484l-1.788 3.444h128.888l94.27 54.341-41.377 72.133-121.44-69.926c-42.243 80.534-67.030 175.943-67.030 277.141 0 0.247 0 0.494 0 0.741v-0.039c0 17.723 0.828 35.239 2.276 52.548l144.818-25.516 14.482 81.994-146.266 25.791c27.352 117.896 85.741 219.431 166.067 298.818l0.060 0.059 99.097-118.061 63.789 53.514-99.717 118.958c89.696 68.066 201.061 112.033 322.217 120.438l1.899 0.106v-157.714h82.753v157.92c123.056-8.51 234.42-52.478 325.626-121.641l-1.51 1.098-99.855-118.958 63.789-53.514 99.097 118.061c80.489-79.421 138.971-180.957 165.59-294.752l0.813-4.125-146.266-25.791 14.482-81.994 144.818 25.516c1.448-17.309 2.276-34.825 2.276-52.548 0-0.219 0-0.477 0-0.736 0-101.187-24.788-196.585-68.622-280.452l1.592 3.345-121.233 69.995-41.377-72.133 94.27-54.41h128.543c54.259 96.325 86.224 211.466 86.224 334.074 0 190.534-77.194 363.038-202.013 487.944l0.004-0.004z" />
<glyph unicode="&#xe90f;" glyph-name="switch-off" horiz-adv-x="1017" d="M428.931 483.878v396.783c0 43.818 35.522 79.34 79.34 79.34s79.34-35.522 79.34-79.34v0-396.783c0-43.818-35.522-79.34-79.34-79.34s-79.34 35.522-79.34 79.34v0zM822.765 843.582c-10.030 7.966-22.876 12.78-36.847 12.78-32.865 0-59.507-26.642-59.507-59.507 0-18.895 8.806-35.733 22.538-46.633l0.123-0.094c90.75-71.923 148.441-182.143 148.441-305.837 0-214.995-174.288-389.283-389.283-389.283s-389.283 174.288-389.283 389.283c0 123.694 57.691 233.913 147.633 305.219l0.808 0.618c14.486 10.979 23.747 28.197 23.747 47.578 0 32.881-26.655 59.536-59.536 59.536-14.466 0-27.727-5.159-38.043-13.738l0.097 0.078c-118.431-93.909-193.714-237.783-193.714-399.241 0-280.71 227.561-508.271 508.271-508.271s508.271 227.561 508.271 508.271c0 161.458-75.284 305.333-192.663 398.436l-1.052 0.805z" />
<glyph unicode="&#xe910;" glyph-name="settings" horiz-adv-x="1045" d="M579.635-64h-109.824c-16.538 0-22.272 0-78.592 139.469l-43.469 17.664c-39.53-23.062-85.304-41.559-133.782-53.072l-3.434-0.688h-9.114l-7.731 6.656-77.875 76.186c-11.827 11.827-15.923 15.923 45.005 153.6l-17.715 41.984c-143.104 51.251-143.104 57.242-143.104 74.138v107.52c0 16.896 0 22.221 142.592 77.312l17.715 42.035c-64.461 135.834-60.006 140.032-47.309 152.013l83.763 81.92 10.24 0.307c53.448-13.697 99.869-31.106 143.795-52.802l-4.275 1.909 43.366 17.613c52.224 140.083 58.624 140.032 75.11 140.032h109.978c16.435 0 22.221 0 78.541-139.571l43.571-17.562c39.604 23.188 85.469 41.742 134.065 53.234l3.407 0.679h9.011l7.731-6.554 77.875-76.032c11.827-11.93 15.872-16.026-45.056-153.6l17.766-42.189c143.36-51.2 143.36-56.986 143.36-73.882v-107.52c0-16.486 0-22.272-142.797-77.466l-17.613-42.086c64.154-135.014 59.904-139.264 47.872-151.347l-84.378-82.586-10.24-0.307c-53.355 13.728-99.687 31.152-143.525 52.852l4.261-1.908-43.622-17.613c-52.787-140.339-58.726-140.339-75.571-140.339zM481.28-19.558h86.63c9.933 20.48 31.437 73.984 48.64 120.269l3.482 9.216 78.899 31.846 8.499-3.584c47.002-20.070 102.4-42.291 124.262-49.101l60.774 59.802c-7.731 21.453-31.181 73.882-52.326 118.118l-4.25 9.011 32.666 77.926 8.909 3.43c47.514 18.278 102.4 40.96 122.88 51.2v83.354c-20.787 9.779-75.622 30.72-122.88 47.36l-9.267 3.328-32.87 77.978 3.942 8.806c20.224 45.619 42.701 99.43 49.92 121.088l-60.877 59.648c-19.712-6.861-74.854-30.72-121.395-51.763l-8.653-3.994-78.746 31.846-3.533 8.755c-18.637 46.541-41.83 100.506-52.275 120.474h-86.733c-10.24-20.224-31.437-73.984-48.589-120.218l-3.43-9.165-78.643-31.949-8.397 3.635c-47.104 20.019-102.81 42.189-124.518 48.998l-60.877-59.546c7.629-21.402 31.13-73.83 52.224-118.067l4.301-9.011-32.819-77.875-8.806-3.43c-47.411-18.278-102.4-40.96-122.88-51.2v-83.763c20.787-9.83 75.571-30.72 122.88-47.565l9.165-3.328 32.87-77.722-3.942-8.755c-20.224-45.568-42.65-99.277-49.92-120.934l61.184-59.853c19.661 6.912 74.752 30.72 121.344 51.814l8.704 3.994 78.746-32 3.533-8.755c18.586-46.438 41.677-100.352 52.173-120.32zM522.547 268.749c-97.55 1.841-175.923 81.353-175.923 179.17 0 98.969 80.231 179.2 179.2 179.2 98.959 0 179.183-80.214 179.2-179.169v-0.001c-1.182-99.196-81.871-179.155-181.236-179.155-0.544 0-1.088 0.002-1.631 0.007l0.083-0.001zM522.547 582.554c-72.861-1.972-131.174-61.506-131.174-134.661 0-74.397 60.31-134.707 134.707-134.707s134.707 60.31 134.707 134.707c0 0.020 0 0.039 0 0.059v-0.003c-1.089 74.608-61.824 134.67-136.588 134.67-0.689 0-1.377-0.005-2.063-0.015l0.104 0.001z" />
<glyph unicode="&#xe911;" glyph-name="refer" horiz-adv-x="1025" d="M807.936 664.013c0 0.040 0 0.086 0 0.133 0 163.469-132.518 295.987-295.987 295.987s-295.987-132.518-295.987-295.987c0-100.88 50.468-189.973 127.533-243.408l0.979-0.642c-202.159-71.743-344.354-261.298-344.474-484.081v-0.015h79.974c0.262 238.496 193.53 431.764 432.001 432.026h0.025c163.365 0.233 295.732 132.618 295.936 295.968v0.019zM512 448c-119.301 0-216.013 96.712-216.013 216.013s96.712 216.013 216.013 216.013c119.301 0 216.013-96.712 216.013-216.013v0c-0.116-119.254-96.759-215.896-216.001-216.013h-0.011zM1024.512 224l-188.262-188.262-56.32 56.32 93.696 93.696h-69.786c-96.142 0-174.080-77.938-174.080-174.080v0-75.674h-79.77v76.237c0.291 140.070 113.776 253.537 253.824 253.798h65.561l-89.702 89.805 56.32 56.32z" />
<glyph unicode="&#xe912;" glyph-name="user" d="M807.822 664.178c-0.151 163.265-132.537 295.558-295.822 295.558-163.378 0-295.822-132.444-295.822-295.822 0-100.782 50.398-189.793 127.365-243.205l0.976-0.641c-202.164-71.733-344.37-261.274-344.519-484.049v-0.018h79.986c0.194 238.517 193.498 431.82 431.996 432.014h0.019c163.261 0.291 295.531 132.561 295.822 295.794v0.028zM512 448c-119.392 0-216.178 96.786-216.178 216.178s96.786 216.178 216.178 216.178c119.392 0 216.178-96.786 216.178-216.178v0c0-119.392-96.786-216.178-216.178-216.178v0zM643.982 176.014h380.018v-79.986h-380.018zM1024 335.986v-79.986h-380.018v79.986zM643.982 15.986h380.018v-79.986h-380.018z" />
<glyph unicode="&#xe913;" glyph-name="folder" horiz-adv-x="1254" d="M1201.436 625.607h-72.932v130.844c0 31.419-25.47 56.889-56.889 56.889v0h-517.518l-104.676 146.66h-392.533c-31.419 0-56.889-25.47-56.889-56.889v0-913.18c-0.002-0.169-0.003-0.369-0.003-0.569 0-29.471 23.891-53.362 53.362-53.362 0.041 0 0.082 0 0.123 0h935.475c0.102-0.001 0.222-0.001 0.342-0.001 23.898 0 44.107 15.794 50.759 37.513l0.099 0.376 213.675 585.956v3.698c0.218 1.855 0.342 4.003 0.342 6.181 0 29.776-23.248 54.122-52.582 55.877l-0.155 0.007zM41.813 903.111c0.126 8.275 6.801 14.95 15.064 15.075h371.212l104.505-146.261h538.795c8.452 0 15.303-6.851 15.303-15.303v0-130.844h-820.622c-23.979-0.017-44.271-15.781-51.097-37.508l-0.103-0.38-173.056-472.121zM1000.391-13.312c-1.417-5.047-5.97-8.688-11.376-8.704h-935.426c-0.059-0.001-0.129-0.002-0.199-0.002-3.76 0-7.094 1.824-9.166 4.635l-0.022 0.031c-1.636 1.957-2.63 4.5-2.63 7.275 0 0.443 0.025 0.881 0.075 1.311l-0.005-0.053 212.992 583.964c1.417 5.047 5.97 8.688 11.376 8.704h935.426c7.964 0 9.956-11.378 10.468-17.067z" />
<glyph unicode="&#xe914;" glyph-name="phone" d="M226.56 289.856c95.040-113.184 209.44-202.304 340.032-265.376 49.728-23.456 116.224-51.296 190.304-56.096 4.576-0.192 8.96-0.384 13.568-0.384 49.728 0 89.664 17.12 122.208 52.32 0.192 0.192 0.576 0.608 0.8 0.992 11.584 13.92 24.736 26.464 38.528 39.776 9.376 8.96 18.976 18.304 28.16 27.84 42.528 44.16 42.528 100.288-0.416 143.040l-120 119.552c-20.352 21.088-44.736 32.224-70.272 32.224-25.6 0-50.144-11.136-71.104-32l-71.488-71.232c-6.592 3.776-13.376 7.168-19.744 10.336-8.872 4.26-16.074 8.235-23.045 12.547l1.061-0.611c-65.088 41.184-124.192 94.88-180.704 163.904-28.544 36-47.712 66.24-61.12 97.088 18.775 17.2 36.16 34.129 53.020 51.568l0.324 0.336c5.984 6.176 12.16 12.352 18.368 18.496 21.568 21.504 33.152 46.368 33.152 71.616 0 25.28-11.392 50.144-33.152 71.616l-59.52 59.296c-6.976 6.944-13.568 13.728-20.352 20.672-13.204 13.71-26.417 26.752-39.954 39.452l-0.59 0.548c-20.576 20.064-44.704 30.624-70.272 30.624-25.376 0-49.728-10.56-71.104-30.848l-74.656-74.368c-25.819-25.141-42.757-59.291-45.727-97.362l-0.033-0.526c-3.776-47.552 5.024-98.080 27.776-159.136 34.944-94.496 87.68-182.208 165.92-275.904zM81.6 720.736c2.067 26.681 13.811 50.281 31.684 67.589l0.028 0.027 74.304 74.048c11.552 11.136 24.32 16.896 36.736 16.896 12.16 0 24.544-5.76 35.936-17.28 13.376-12.352 25.952-25.28 39.52-39.040 6.816-6.944 13.792-13.888 20.8-21.056l59.488-59.296c12.384-12.32 18.752-24.864 18.752-37.184s-6.4-24.864-18.752-37.216c-6.208-6.144-12.384-12.512-18.56-18.688-18.56-18.688-35.968-36.384-55.136-53.312l-0.96-0.96c-16.608-16.544-14.016-32.256-10.016-44.16 0.192-0.64 0.416-1.024 0.608-1.6 15.36-36.8 36.736-71.84 70.080-113.6 59.904-73.6 123.008-130.688 192.48-174.656 8.608-5.568 17.792-9.92 26.368-14.336 8-3.968 15.36-7.744 21.952-11.936 0.8-0.384 1.408-0.8 2.208-1.184 6.592-3.392 12.992-4.96 19.36-4.96 16 0 26.368 10.144 29.76 13.504l74.688 74.4c11.584 11.52 24.16 17.696 36.544 17.696 15.168 0 27.52-9.344 35.328-17.696l120.416-119.744c23.968-23.872 23.744-49.728-0.608-75.008-8.384-8.96-17.184-17.504-26.56-26.432-13.984-13.536-28.544-27.456-41.728-43.2-22.976-24.64-50.304-36.16-85.664-36.16-3.722 0.032-7.338 0.171-10.924 0.414l0.556-0.030c-65.504 4.16-126.4 29.632-172.16 51.328-124.16 59.84-233.184 144.8-323.648 252.608-74.496 89.312-124.608 172.48-157.76 261.6-20.544 54.72-28.352 98.656-25.152 138.656z" />
<glyph unicode="&#xe915;" glyph-name="user-calendar" horiz-adv-x="1097" d="M1012.736 789.321h-84.37v128c0 0.076 0.001 0.166 0.001 0.256 0 23.365-18.89 42.319-42.231 42.422h-0.010c-23.335-0.124-42.204-19.070-42.204-42.422 0-0.090 0-0.18 0.001-0.27v0.014-128h-590.738v128c0 0.076 0.001 0.166 0.001 0.257 0 23.34-18.848 42.277-42.154 42.422h-0.014c-23.335-0.124-42.204-19.070-42.204-42.422 0-0.090 0-0.18 0.001-0.27v0.014-128h-84.407c-46.629 0-84.407-38.144-84.407-85.321v-682.679c0-47.104 37.778-85.321 84.407-85.321h928.329c46.629 0 84.407 38.217 84.407 85.321v682.679c0 47.141-37.778 85.321-84.407 85.321zM168.777 704v-42.679c0-0.065-0.001-0.143-0.001-0.22 0-23.365 18.89-42.319 42.231-42.422h0.010c23.335 0.124 42.204 19.070 42.204 42.422 0 0.077 0 0.155-0.001 0.232v-0.012 42.679h590.775v-42.679c0-0.065-0.001-0.143-0.001-0.22 0-23.353 18.869-42.298 42.192-42.422h0.012c23.335 0.124 42.204 19.070 42.204 42.422 0 0.077 0 0.155-0.001 0.232v-0.012 42.679h84.37v-170.679h-928.366v170.679h84.37zM84.407 21.321v426.679h928.329v-426.679h-928.329z" />
<glyph unicode="&#xe916;" glyph-name="user-circle" d="M512 928c-264.672 0-480-215.36-480-480s215.328-480 480-480c129.216 0 246.56 51.392 332.928 134.72 0.958 0.675 1.781 1.457 2.477 2.343l0.019 0.025c89.231 87.004 144.576 208.398 144.576 342.718 0 0.068 0 0.136 0 0.204v-0.011c0 264.64-215.328 480-480 480zM512-8c-120.32 0-229.824 46.912-311.392 123.328 55.214 119.217 173.809 200.444 311.383 200.512h0.009c134.624 0 255.808-78.528 311.36-200.576-81.073-76.347-190.606-123.264-311.096-123.264-0.093 0-0.185 0-0.278 0h0.014zM841.408 133.184c-60.501 123.285-185.125 206.656-329.222 206.656-0.066 0-0.131 0-0.197 0h0.010c-144.123-0.087-268.762-83.417-328.451-204.509l-0.957-2.147c-78.343 81.498-126.592 192.427-126.592 314.625 0 0.067 0 0.134 0 0.202v-0.011c0 251.424 204.576 456 456 456s456-204.576 456-456c0-122.016-48.256-232.896-126.592-314.816zM512 799.296c-112.18-0.109-203.091-91.020-203.2-203.19v-0.010c0.146-112.153 91.042-203.027 203.19-203.136h0.010c112.18 0.109 203.091 91.020 203.2 203.19v0.010c-0.146 112.153-91.042 203.027-203.19 203.136h-0.010zM512 416.928c-98.925 0.109-179.091 80.275-179.2 179.189v0.011c0 98.784 80.416 179.168 179.2 179.168s179.2-80.384 179.2-179.2c0-98.784-80.416-179.168-179.2-179.168z" />
<glyph unicode="&#xe917;" glyph-name="user-dashboard" horiz-adv-x="1280" d="M1248.256 541.952v371.627c0 25.6-21.12 46.421-47.147 46.421h-707.413c-26.069 0-47.189-20.779-47.189-46.464v-371.584c0-25.643 21.12-46.421 47.147-46.421h707.456c26.027 0 47.147 20.779 47.147 46.421zM540.843 588.416v278.699h613.12v-278.741h-613.12zM377.301 541.952v371.627c0 25.557-21.12 46.421-47.147 46.421h-283.008c-26.027 0-47.147-20.779-47.147-46.464v-371.584c0-25.643 21.12-46.421 47.147-46.421h283.008c26.027 0 47.147 20.779 47.147 46.421zM94.336 588.416v278.699h188.629v-278.741h-188.629zM801.792 8.277v371.627c0 25.6-21.12 46.421-47.189 46.421h-707.413c-26.069 0-47.189-20.779-47.189-46.464v-371.584c0-25.643 21.12-46.421 47.147-46.421h707.456c26.027 0 47.189 20.779 47.189 46.421zM94.293 54.741v278.699h613.12v-278.699h-613.12zM1248.256 8.277v371.627c0 25.6-21.12 46.421-47.147 46.421h-282.965c-26.027 0-47.189-20.779-47.189-46.464v-371.584c0-25.643 21.12-46.421 47.189-46.421h282.965c26.027 0 47.147 20.779 47.147 46.421zM965.291 54.741v278.699h188.672v-278.699h-188.672z" />
<glyph unicode="&#xe918;" glyph-name="user1" horiz-adv-x="861" d="M667.904 722.517c0-131.158-106.325-237.483-237.483-237.483s-237.483 106.325-237.483 237.483c0 131.158 106.325 237.483 237.483 237.483s237.483-106.325 237.483-237.483zM430.336 366.336c-237.668 0-430.336-192.668-430.336-430.336v0h860.757c0 237.668-192.668 430.336-430.336 430.336-0.030 0-0.060 0-0.090 0h0.005z" />
<glyph unicode="&#xe919;" glyph-name="phone-receiver" horiz-adv-x="1025" d="M1024 151.859c0.338-2.176 0.532-4.685 0.532-7.24 0-14.259-6.021-27.111-15.66-36.153l-0.027-0.025-144.077-142.95c-7.084-7.591-15.545-13.791-25-18.222l-0.498-0.21c-8.888-4.687-19.202-8.254-30.090-10.149l-0.63-0.091-6.554-0.512q-5.427-0.512-14.131-0.512c-24.354 0.954-47.337 3.486-69.8 7.517l3.035-0.452c-42.521 7.969-80.271 19.993-115.84 36.001l3.2-1.288c-58.224 25.538-107.926 53.263-154.636 85.057l3.289-2.113c-67.7 46.157-126.816 96.202-180.298 151.713l-0.336 0.351c-44.949 43.625-86.212 90.44-123.646 140.294l-2.204 3.066c-27.33 36.444-53.831 77.729-77.306 120.897l-2.668 5.362c-16.287 29.52-31.688 64.262-44.134 100.38l-1.434 4.785c-7.868 22.518-14.973 49.859-19.98 77.927l-0.5 3.378c-2.95 14.946-4.639 32.132-4.639 49.711 0 1.424 0.011 2.845 0.033 4.263l-0.003-0.214q1.229 19.558 1.229 21.299c1.988 11.518 5.554 21.832 10.517 31.3l-0.277-0.58c4.643 9.952 10.843 18.412 18.385 25.454l0.047 0.044 144.179 144.896c8.634 9.215 20.829 15.002 34.379 15.155h0.028c0.161 0.002 0.351 0.004 0.542 0.004 9.209 0 17.709-3.039 24.55-8.169l-0.106 0.076c7.331-5.658 13.465-12.444 18.246-20.158l0.186-0.322 116.019-220.16c4.287-7.467 6.816-16.417 6.816-25.958 0-4.268-0.506-8.418-1.461-12.393l0.073 0.36c-2.735-13.67-9.266-25.507-18.434-34.716l-53.144-53.144c-1.714-1.965-3.020-4.332-3.758-6.938l-0.031-0.128c-0.914-2.388-1.503-5.15-1.636-8.031l-0.002-0.059c4.415-19.658 11.154-37.025 20.068-53.015l-0.51 0.996c12.924-24.337 26.234-45.105 41.017-64.7l-0.876 1.212c24.142-31.785 49.383-59.948 76.708-85.941l0.296-0.28c26.451-27.769 54.779-53.176 84.991-76.24l1.742-1.276c18.404-14.091 39.161-27.656 60.904-39.653l2.584-1.307c11.207-6.391 24.175-11.78 37.832-15.496l1.182-0.274 13.517-2.765c2.6 0.233 4.997 0.814 7.241 1.699l-0.176-0.061c2.734 0.769 5.101 2.075 7.087 3.807l-0.022-0.018 61.44 62.874c11.861 11.166 27.885 18.028 45.51 18.028 0.308 0 0.616-0.002 0.923-0.006h-0.046c0.812 0.042 1.763 0.065 2.719 0.065 9.723 0 18.873-2.45 26.867-6.767l-0.3 0.148h1.126l208.896-123.597c13.513-7.542 23.351-20.296 26.86-35.472l0.072-0.368z" />
<glyph unicode="&#xe91a;" glyph-name="computer-screen" horiz-adv-x="1227" d="M1160.533 958.208v1.792h-1094.485v-1.792c-34.778-2.985-62.374-30.142-66.021-64.451l-0.027-0.317v-719.189c-0.001-0.119-0.001-0.259-0.001-0.4 0-13.124 3.583-25.411 9.823-35.937l-0.179 0.327c11.331-21.93 33.836-36.662 59.782-36.662 0.943 0 1.882 0.019 2.816 0.058l-0.134-0.004h394.837v-99.584h-75.008c-18.239 0-33.024-14.785-33.024-33.024s14.785-33.024 33.024-33.024v0h442.368c18.239 0 33.024 14.785 33.024 33.024s-14.785 33.024-33.024 33.024v0h-74.837v99.669h394.923c0.831-0.037 1.805-0.058 2.785-0.058 25.918 0 48.394 14.738 59.504 36.291l0.176 0.375c6.245 10.291 10.024 22.688 10.239 35.951l0.001 0.060v719.104c-4.33 34.493-31.844 61.393-66.257 64.744l-0.303 0.024zM1160.533 887.381v-713.131c0-4.267-1.792-6.059-5.973-6.059h-1082.539c-4.181 0-5.973 1.792-5.973 6.059v719.189h1094.485v-6.059z" />
<glyph unicode="&#xe91b;" glyph-name="flag" horiz-adv-x="751" d="M740.181 906.325c-54.775 20.905-118.106 33.356-184.243 34.13l-0.333 0.003c-2.081 0.048-4.533 0.075-6.992 0.075-53.472 0-103.931-12.895-148.439-35.745l1.831 0.854c-41.446-19.761-90.074-31.301-141.398-31.301-5.192 0-10.356 0.118-15.491 0.352l0.729-0.026c-75.842 1.436-148.59 11.902-218.079 30.367l6.367-1.439v39.339c0 9.426-7.641 17.067-17.067 17.067s-17.067-7.641-17.067-17.067v0-51.2s0-0.427 0-0.683 0 0 0-0.597v-937.387c0-9.426 7.641-17.067 17.067-17.067s17.067 7.641 17.067 17.067v0 403.2c63.203-16.512 136.010-26.557 210.971-27.724l0.741-0.009c4.406-0.189 9.574-0.296 14.768-0.296 56.997 0 110.969 12.95 159.134 36.069l-2.211-0.956c38.11 19.531 83.143 30.978 130.849 30.978 2.509 0 5.010-0.032 7.504-0.095l-0.369 0.007c61.963-0.898 120.968-12.397 175.66-32.756l-3.628 1.183c1.87-0.766 4.040-1.211 6.315-1.211 9.426 0 17.067 7.641 17.067 17.067 0 0.006 0 0.012 0 0.017v-0.001 512c-0.030 7.124-4.42 13.215-10.638 15.746l-0.114 0.041z" />
<glyph unicode="&#xe91c;" glyph-name="classes-inactive" d="M924.48 925.6c17.536 4.992 33.152 2.176 46.88-8.416 13.76-10.624 20.64-24.64 20.64-42.144v-728.256c0-14.976-4.992-28.864-15.008-41.664-9.984-12.8-22.176-21.056-36.544-24.8l-396.576-107.648c-5.553-1.735-12.074-3.056-18.791-3.712l-0.409-0.032c-6.592-0.64-12.352-0.928-17.344-0.928-6.88 0-13.6 0.48-20.16 1.408-6.892 0.942-12.771 2.084-18.537 3.514l1.193-0.25-386.24 106.72c-14.98 4.725-27.483 13.72-36.445 25.547l-0.131 0.181c-10.016 12.8-15.008 26.688-15.008 41.664v728.256c0 17.504 6.88 31.52 20.64 42.144 13.76 10.592 29.344 13.44 46.848 8.416l386.272-106.72c5.024-1.248 12.064-1.856 21.12-1.856s16.096 0.64 21.088 1.856l396.576 106.72zM482.016 31.68v727.36c-2.173 0.018-4.263 0.344-6.238 0.937l0.158-0.041c-1.811 0.571-3.897 0.919-6.059 0.96h-0.021l-377.856 104.8v-718.912c0-1.856 0.768-3.744 2.336-5.6 1.152-1.508 2.555-2.758 4.157-3.707l0.067-0.037 383.456-105.792zM932.032 146.816v718.88l-388.16-104.832h-1.856v-726.4l382.496 102.976c1.792 1.051 3.33 2.294 4.66 3.731l0.012 0.013c1.888 1.856 2.816 3.744 2.816 5.6zM633.92 584.896c-6.672 0.041-12.846 2.143-17.926 5.7l0.102-0.068c-5.518 3.688-9.548 9.229-11.223 15.717l-0.041 0.187c-0.572 2.222-0.9 4.774-0.9 7.402 0 5.726 1.559 11.089 4.275 15.686l-0.079-0.144c3.737 6.827 9.814 11.979 17.129 14.433l0.215 0.063 209.984 58.976c2.234 0.575 4.798 0.905 7.439 0.905 5.721 0 11.081-1.548 15.683-4.248l-0.146 0.079c7-3.927 12.209-10.345 14.474-18.025l0.054-0.215c0.559-2.127 0.881-4.57 0.881-7.087 0-5.515-1.541-10.669-4.217-15.057l0.072 0.128c-3.731-6.839-9.809-12.003-17.129-14.465l-0.215-0.063-210.016-58.944c-1.202-0.606-2.619-0.961-4.119-0.961-0.037 0-0.074 0-0.11 0.001h-4.186zM633.92 405.184c-6.669 0.031-12.843 2.122-17.927 5.668l0.103-0.068c-5.523 3.695-9.556 9.248-11.223 15.749l-0.041 0.187c-0.568 2.216-0.895 4.76-0.895 7.38 0 5.722 1.557 11.081 4.269 15.676l-0.079-0.144c3.731 6.839 9.809 12.003 17.129 14.465l0.215 0.063 209.984 58.976c2.222 0.569 4.773 0.895 7.4 0.895 5.737 0 11.111-1.556 15.721-4.27l-0.145 0.079c7-3.927 12.209-10.345 14.474-18.025l0.054-0.215c0.559-2.127 0.881-4.57 0.881-7.087 0-5.515-1.541-10.669-4.217-15.057l0.072 0.128c-3.737-6.827-9.814-11.979-17.129-14.433l-0.215-0.063-210.016-58.976c-1.202-0.606-2.619-0.961-4.119-0.961-0.037 0-0.074 0-0.11 0.001h-4.186zM633.92 225.44c-6.672 0.041-12.846 2.143-17.926 5.7l0.102-0.068c-5.518 3.688-9.548 9.229-11.223 15.717l-0.041 0.187c-0.572 2.222-0.9 4.774-0.9 7.402 0 5.726 1.559 11.089 4.275 15.686l-0.079-0.144c3.737 6.827 9.814 11.979 17.129 14.433l0.215 0.063 209.984 58.976c2.234 0.575 4.798 0.905 7.439 0.905 5.721 0 11.081-1.548 15.683-4.248l-0.146 0.079c7-3.927 12.209-10.345 14.474-18.025l0.054-0.215c0.559-2.127 0.881-4.57 0.881-7.087 0-5.515-1.541-10.669-4.217-15.057l0.072 0.128c-3.737-6.827-9.814-11.979-17.129-14.433l-0.215-0.063-210.016-58.976c-1.202-0.606-2.619-0.961-4.119-0.961-0.037 0-0.074 0-0.11 0.001h-4.186zM402.304 643.84c7.52-2.496 13.28-7.328 17.344-14.496 2.638-4.453 4.196-9.816 4.196-15.542 0-2.628-0.328-5.18-0.946-7.616l0.046 0.213c-1.716-6.675-5.746-12.216-11.166-15.843l-0.098-0.061c-4.969-3.484-11.131-5.584-17.78-5.632h-4.236c-0.031 0-0.068-0.001-0.105-0.001-1.5 0-2.918 0.355-4.173 0.985l0.054-0.024-210.016 58.944c-7.535 2.525-13.613 7.689-17.264 14.369l-0.080 0.159c-2.6 4.258-4.139 9.409-4.139 14.92 0 2.509 0.319 4.944 0.919 7.265l-0.044-0.201c2.319 7.895 7.528 14.313 14.375 18.161l0.153 0.079c4.465 2.635 9.839 4.191 15.576 4.191 2.627 0 5.178-0.326 7.614-0.941l-0.214 0.046 209.984-58.976zM402.304 464.128c7.52-2.496 13.28-7.36 17.344-14.528 2.634-4.451 4.191-9.81 4.191-15.532 0-2.62-0.326-5.164-0.94-7.593l0.046 0.213c-1.708-6.688-5.741-12.241-11.167-15.875l-0.097-0.061c-4.972-3.473-11.134-5.562-17.783-5.6h-4.233c-0.031 0-0.068-0.001-0.105-0.001-1.5 0-2.918 0.355-4.173 0.985l0.054-0.024-210.016 58.944c-7.53 2.517-13.607 7.669-17.264 14.337l-0.080 0.159c-2.603 4.26-4.145 9.414-4.145 14.929 0 2.517 0.321 4.96 0.925 7.288l-0.044-0.201c2.319 7.895 7.528 14.313 14.375 18.161l0.153 0.079c4.465 2.635 9.839 4.191 15.576 4.191 2.627 0 5.178-0.326 7.614-0.941l-0.214 0.046 209.984-58.976zM402.304 284.384c7.52-2.496 13.28-7.328 17.344-14.496 2.638-4.453 4.196-9.816 4.196-15.542 0-2.628-0.328-5.18-0.946-7.616l0.046 0.213c-1.716-6.675-5.746-12.216-11.166-15.843l-0.098-0.061c-4.969-3.484-11.131-5.584-17.78-5.632h-4.236c-0.031 0-0.068-0.001-0.105-0.001-1.5 0-2.918 0.355-4.173 0.985l0.054-0.024-210.016 58.976c-7.53 2.517-13.607 7.669-17.264 14.337l-0.080 0.159c-2.6 4.258-4.139 9.409-4.139 14.92 0 2.509 0.319 4.944 0.919 7.265l-0.044-0.201c2.319 7.895 7.528 14.313 14.375 18.161l0.153 0.079c4.465 2.635 9.839 4.191 15.576 4.191 2.627 0 5.178-0.326 7.614-0.941l-0.214 0.046 209.984-58.976z" />
<glyph unicode="&#xe91d;" glyph-name="mail" horiz-adv-x="1229" d="M1145.003 960h-1061.205c-46.285 0-83.797-40.448-83.797-90.351v-843.298c0-49.903 37.513-90.351 83.797-90.351h1061.205c46.285 0 83.797 40.448 83.797 90.351v843.298c0 49.903-37.513 90.351-83.797 90.351zM1145.003 90.214l-221.73 239.138c-7.233 7.471-17.354 12.108-28.558 12.108-11.745 0-22.299-5.096-29.573-13.198l-0.033-0.037c-7.605-8.429-12.257-19.649-12.257-31.957 0-11.759 4.247-22.526 11.291-30.85l-0.058 0.070 221.73-239.138h-942.831l221.73 239.138c6.986 8.254 11.233 19.021 11.233 30.78 0 12.307-4.653 23.528-12.295 31.999l0.038-0.042c-7.306 8.138-17.861 13.235-29.606 13.235-11.204 0-21.324-4.637-28.547-12.097l-0.010-0.011-221.73-239.138v579.755l502.682-408.713c6.774-5.623 15.558-9.035 25.139-9.035s18.366 3.412 25.204 9.087l507.634 408.967 0.546-580.062zM1145.003 869.649v-86.733l-532.548-429.193-528.657 429.193v86.699h1061.205z" />
<glyph unicode="&#xe91e;" glyph-name="brainstorm" d="M442.863 628.852l-62.662 62.464c-4.36 4.34-10.372 7.024-17.012 7.024s-12.652-2.683-17.012-7.024l0.001 0.001c-4.362-4.344-7.062-10.354-7.062-16.995s2.699-12.652 7.061-16.994l0.001-0.001 62.563-62.431c4.275-3.946 10.011-6.366 16.312-6.366 13.299 0 24.081 10.781 24.081 24.081 0 6.268-2.395 11.976-6.319 16.261l0.016-0.018M753.928 318.514l-62.596 62.431c-4.363 4.36-10.389 7.056-17.045 7.056s-12.682-2.697-17.045-7.057v0c-4.352-4.342-7.045-10.346-7.045-16.979s2.693-12.637 7.045-16.978l62.63-62.431c4.347-4.382 10.371-7.095 17.028-7.095s12.681 2.713 17.027 7.093l0.002 0.002c4.352 4.342 7.045 10.346 7.045 16.979s-2.693 12.637-7.045 16.978v0M363.157 277.487c6.177 0 12.354 2.312 17.045 7.036l62.629 62.464c4.362 4.344 7.062 10.354 7.062 16.995s-2.699 12.652-7.061 16.994l-0.001 0.001c-4.363 4.36-10.389 7.056-17.045 7.056s-12.682-2.697-17.045-7.057l-62.563-62.464c-4.392-4.348-7.112-10.379-7.112-17.045 0-13.245 10.737-23.981 23.981-23.981 0.062 0 0.123 0 0.185 0.001h-0.009M719.905 691.316l-62.629-62.431c-4.392-4.348-7.112-10.379-7.112-17.045 0-13.245 10.737-23.981 23.981-23.981 0.062 0 0.123 0 0.185 0.001h-0.009c0.010 0 0.022 0 0.034 0 6.641 0 12.654 2.688 17.011 7.036l62.596 62.431c4.372 4.345 7.078 10.362 7.078 17.012s-2.706 12.666-7.077 17.010l-0.001 0.001c-4.36 4.34-10.372 7.024-17.012 7.024s-12.652-2.683-17.012-7.024l0.001 0.001M398.435 487.936c-0.038 13.271-10.804 24.014-24.080 24.014 0 0 0 0 0 0h-88.526c-0.462 0.032-1.001 0.050-1.544 0.050-13.299 0-24.081-10.781-24.081-24.081s10.781-24.081 24.081-24.081c0.543 0 1.082 0.018 1.616 0.053l-0.073-0.004h88.526c13.312 0 24.114 10.769 24.114 24.047M701.704 487.936c0-13.279 10.802-24.047 24.114-24.047h88.526c0.462-0.032 1.001-0.050 1.544-0.050 13.299 0 24.081 10.781 24.081 24.081s-10.781 24.081-24.081 24.081c-0.543 0-1.082-0.018-1.616-0.053l0.073 0.004h-88.526c-0.020 0-0.043 0-0.066 0-13.269 0-24.029-10.748-24.047-24.013v-0.002M550.086 336.648c-0.020 0-0.043 0-0.066 0-13.269 0-24.029-10.748-24.047-24.013v-88.33c0-13.308 10.789-24.097 24.097-24.097s24.097 10.789 24.097 24.097v0 88.328c-0.019 13.285-10.793 24.048-24.080 24.048-0.012 0-0.023 0-0.035 0h0.002M550.053 775.548c0 0 0 0 0 0-13.269 0-24.029-10.748-24.047-24.013v-88.33c0-13.299 10.781-24.081 24.081-24.081s24.081 10.781 24.081 24.081v0 88.361c-0.038 13.271-10.804 24.014-24.080 24.014-0.012 0-0.023 0-0.035 0h0.002M875.157 224.801c-40.63-67.122-75.644-125.126-75.644-209.061v-47.236h-48.227v47.236c0 97.28 42.017 166.747 82.614 233.868 45.254 74.851 92.028 152.246 92.028 277.471 0 148.81-85.487 273.177-223.1 324.476-121.030 45.155-251.21 34.023-357.178-30.489-130.477-79.476-179.233-246.355-222.274-393.579-4.129-14.171-10.207-34.618-18.234-61.374h30.72c64.627-0.019 117.029-52.328 117.198-116.918v-123.226c0-42.413 36.137-61.407 71.911-61.407h41.588c0.010 0 0.022 0 0.033 0 53.098 0 96.157-42.978 96.289-96.045v-0.013h-48.194c0 26.492-21.57 48.029-48.128 48.029h-41.621c-69.533 0-120.039 46.014-120.039 109.436v123.21c-0.075 38.071-30.955 68.905-69.037 68.905 0 0 0 0 0 0h-43.867c-0.066 0-0.144-0.001-0.222-0.001-21.162 0-38.317 17.155-38.317 38.317 0 4.521 0.783 8.859 2.221 12.887l-0.083-0.268c7.267 23.090 14.171 46.807 21.504 71.911 45.485 155.615 97.049 331.974 243.448 421.128 118.619 72.242 264.126 84.86 399.129 34.453 156.903-58.5 254.381-200.076 254.381-369.466 0-138.603-52.521-225.544-98.932-302.245z" />
<glyph unicode="&#xe91f;" glyph-name="user-stars" d="M546.055 128.658l-31.598 97.339-31.627-97.339h-102.371l82.798-60.153-31.598-97.221 82.798 60.065 82.768-60.065-31.627 97.221 82.798 60.153zM273.028 126.757l-31.598 97.309-31.685-97.309h-102.312l82.798-60.153-31.598-97.251 82.798 60.065 82.768-59.977-31.627 97.134 82.798 60.182zM921.424 128.658h-102.341l-31.598 97.339-31.627-97.339h-102.341l82.798-60.153-31.627-97.221 82.798 60.065 82.739-59.977-31.568 97.134zM514.428 542.647c106 0.116 191.898 86.015 192.015 192.003v0.011c-0.15 105.981-86.032 191.852-192.002 191.985h-0.013c-105.981-0.15-191.852-86.032-191.985-192.002v-0.013c0.133-105.977 86.008-191.852 191.973-191.985h0.013zM514.428 883.99c82.432-0.1 149.229-66.897 149.328-149.319v-0.010c-0.083-82.444-66.886-149.258-149.319-149.358h-0.010c-82.429 0.117-149.216 66.924-149.299 149.35v0.008c0.1 82.432 66.897 149.229 149.319 149.328h0.010zM791.786 323.833c0 88.561-72.645 191.985-277.358 191.985s-277.328-103.424-277.328-191.985v-21.358h554.686v21.358zM281.541 345.161c13.458 78.409 101.873 128 232.887 128 131.043 0 219.487-49.591 232.887-128h-465.774z" />
<glyph unicode="&#xe920;" glyph-name="calendar-inactive" d="M914.88 859.424c21.408 0 39.616-7.488 54.624-22.496s22.496-33.216 22.496-54.656v-737.12c0-21.44-7.488-39.68-22.496-54.656-13.53-13.891-32.417-22.508-53.316-22.508-0.471 0-0.941 0.004-1.41 0.013l0.070-0.001h-805.696c-21.44 0-39.68 7.488-54.656 22.496-13.891 13.53-22.508 32.417-22.508 53.316 0 0.471 0.004 0.941 0.013 1.41l-0.001-0.070v737.12c0 21.44 7.488 39.68 22.496 54.656 13.53 13.891 32.417 22.508 53.316 22.508 0.471 0 0.941-0.004 1.41-0.013l-0.070 0.001h128.576v30.016c0 10.688 3.744 19.84 11.232 27.296 7.52 7.52 16.64 11.264 27.328 11.264 10.72 0 19.84-3.744 27.328-11.264 7.488-7.488 11.232-16.608 11.232-27.296v-30.016h394.304v30.016c0 10.688 3.744 19.84 11.232 27.296 7.52 7.52 16.64 11.264 27.328 11.264 10.72 0 19.84-3.744 27.328-11.264 7.488-7.488 11.232-16.608 11.232-27.296v-30.016h128.576zM109.12 782.304v-120h805.76v120h-128.64v-21.44c0-10.72-3.744-19.84-11.232-27.328-6.764-6.955-16.211-11.27-26.667-11.27-0.233 0-0.465 0.002-0.696 0.006l0.035-0.001c-10.72 0-19.84 3.776-27.328 11.264-6.936 6.761-11.238 16.196-11.238 26.636 0 0.243 0.002 0.486 0.007 0.728l-0.001-0.036v21.44h-394.272v-21.44c0-10.72-3.744-19.84-11.232-27.328-6.764-6.955-16.211-11.27-26.667-11.27-0.233 0-0.465 0.002-0.696 0.006l0.035-0.001c-10.72 0-19.84 3.776-27.328 11.264-6.936 6.761-11.238 16.196-11.238 26.636 0 0.243 0.002 0.486 0.007 0.728l-0.001-0.036v21.44h-128.608zM914.88 45.12v540.032h-805.76v-540.032h805.76zM272 448h68.576c9.28 0 17.312-3.392 24.096-10.176s10.176-14.816 10.176-24.096-3.392-17.344-10.176-24.128c-6.011-6.276-14.459-10.177-23.818-10.177-0.098 0-0.195 0-0.293 0.001h-68.561c-0.083-0.001-0.18-0.001-0.278-0.001-9.359 0-17.807 3.901-23.807 10.165l-0.011 0.012c-6.277 6.011-10.177 14.459-10.177 23.818 0 0.109 0.001 0.218 0.002 0.326v-0.017c0 9.28 3.392 17.28 10.176 24.096 6.011 6.276 14.459 10.177 23.818 10.177 0.098 0 0.195 0 0.293-0.001h-0.015zM477.728 448h68.544c9.28 0 17.344-3.392 24.128-10.176s10.176-14.816 10.176-24.096-3.392-17.344-10.176-24.128c-6.011-6.277-14.459-10.177-23.818-10.177-0.109 0-0.218 0.001-0.326 0.002h-68.495c-0.092-0.001-0.201-0.001-0.31-0.001-9.359 0-17.807 3.901-23.807 10.166l-0.011 0.012c-6.277 6.011-10.177 14.459-10.177 23.818 0 0.109 0.001 0.218 0.002 0.326v-0.017c0 9.28 3.392 17.28 10.176 24.096 6.011 6.277 14.459 10.177 23.818 10.177 0.109 0 0.218-0.001 0.326-0.002h-0.017zM683.424 448h68.576c9.28 0 17.312-3.392 24.096-10.176s10.176-14.816 10.176-24.096-3.392-17.344-10.176-24.128c-6.011-6.276-14.459-10.177-23.818-10.177-0.098 0-0.195 0-0.293 0.001h-68.561c-0.083-0.001-0.18-0.001-0.278-0.001-9.359 0-17.807 3.901-23.807 10.165l-0.011 0.012c-6.277 6.011-10.177 14.459-10.177 23.818 0 0.109 0.001 0.218 0.002 0.326v-0.017c0 9.28 3.392 17.28 10.176 24.096 6.011 6.276 14.459 10.177 23.818 10.177 0.098 0 0.195 0 0.293-0.001h-0.015zM272 240.128h68.576c9.28 0 17.312-3.392 24.096-10.176s10.176-14.816 10.176-24.096-3.392-17.312-10.176-24.096c-6.011-6.276-14.459-10.177-23.818-10.177-0.098 0-0.195 0-0.293 0.001h-68.561c-0.083-0.001-0.18-0.001-0.278-0.001-9.359 0-17.807 3.901-23.807 10.165l-0.011 0.012c-6.276 6.011-10.177 14.459-10.177 23.818 0 0.098 0 0.195 0.001 0.293v-0.015c0 9.28 3.392 17.312 10.176 24.096 6.011 6.276 14.459 10.177 23.818 10.177 0.098 0 0.195 0 0.293-0.001h-0.015zM477.728 240.128h68.544c9.28 0 17.344-3.392 24.128-10.176s10.176-14.816 10.176-24.096-3.392-17.312-10.176-24.096c-6.011-6.277-14.459-10.177-23.818-10.177-0.109 0-0.218 0.001-0.326 0.002h-68.495c-0.092-0.001-0.201-0.001-0.31-0.001-9.359 0-17.807 3.901-23.807 10.166l-0.011 0.012c-6.276 6.011-10.177 14.459-10.177 23.818 0 0.098 0 0.195 0.001 0.293v-0.015c0 9.28 3.392 17.312 10.176 24.096 6.011 6.277 14.459 10.177 23.818 10.177 0.109 0 0.218-0.001 0.326-0.002h-0.017z" />
<glyph unicode="&#xe921;" glyph-name="dashboard-active" d="M512.992 317.984h303.008c8.992 0 16 7.040 16 16v37.024c0 8.992-7.008 16-16 16h-303.008c-8.992 0-16-7.008-16-16v-36.992c0-8 7.008-16 16-16zM512.992 440.992h303.008c8.992 0 16 7.008 16 16v36.992c0 9.024-7.008 16-16 16h-303.008c-8.992 0-16-6.976-16-16v-36.992c0-8.992 7.008-16 16-16zM296 289.984c0.563-0.011 1.226-0.017 1.891-0.017 55.066 0 100.173 42.639 104.106 96.701l0.020 0.34c0 4.992-3.008 8-8 8h-89.056c-4.291 0.303-7.697 3.709-7.998 7.973l-0.002 0.027v88.992c0.001 0.038 0.001 0.084 0.001 0.129 0 4.348-3.524 7.872-7.872 7.872-0.045 0-0.091 0-0.136-0.001h0.007c-54.976-4-97.92-51.008-96.96-107.008 0.992-55.008 48-101.984 104-103.008zM344 432.992h88.992c4.992 0 8 4 8 8-3.995 51.881-45.111 92.997-96.633 96.97l-0.359 0.022c-4.992 0-8-2.976-8-8v-88.96c0-4.032 3.008-8 8-8zM273.984 203.008c0-22.639-18.353-40.992-40.992-40.992s-40.992 18.353-40.992 40.992c0 22.639 18.353 40.992 40.992 40.992s40.992-18.353 40.992-40.992zM412.992 203.008c0-22.639-18.353-40.992-40.992-40.992s-40.992 18.353-40.992 40.992c0 22.639 18.353 40.992 40.992 40.992s40.992-18.353 40.992-40.992zM552.992 203.008c0-22.639-18.353-40.992-40.992-40.992s-40.992 18.353-40.992 40.992c0 22.639 18.353 40.992 40.992 40.992s40.992-18.353 40.992-40.992zM692.992 203.008c0-22.639-18.353-40.992-40.992-40.992s-40.992 18.353-40.992 40.992c0 22.639 18.353 40.992 40.992 40.992s40.992-18.353 40.992-40.992zM832 203.008c0-22.639-18.353-40.992-40.992-40.992s-40.992 18.353-40.992 40.992c0 22.639 18.353 40.992 40.992 40.992s40.992-18.353 40.992-40.992zM936 877.984h-848c-28 0-51.008-22.944-51.008-52v-752c0-28.992 23.008-52 51.008-52h847.008c28 0 50.976 23.040 50.976 52v752c0.026 0.601 0.041 1.307 0.041 2.016 0 27.605-22.379 49.984-49.984 49.984-0.014 0-0.029 0-0.043 0h0.002zM921.984 604v-516.992h-819.968v516.992h820zM102.016 670.016v142.944h820v-143.008h-820zM208.992 740.992c0-17.673-14.327-32-32-32s-32 14.327-32 32c0 17.673 14.327 32 32 32s32-14.327 32-32zM302.016 740.992c0-17.673-14.327-32-32-32s-32 14.327-32 32c0 17.673 14.327 32 32 32s32-14.327 32-32zM396 740.992c0-17.673-14.327-32-32-32s-32 14.327-32 32c0 17.673 14.327 32 32 32s32-14.327 32-32z" />
<glyph unicode="&#xe922;" glyph-name="communication" d="M994.276 129.166h-28.217v573.554c-0.177 41.779-33.997 75.599-75.759 75.776h-81.766c-8.903 0-14.848-5.945-14.848-14.848s5.945-14.848 14.848-14.848h81.778c25.259 0 46.052-20.821 46.052-46.080v-451.698h-835.1v451.698c0 25.259 20.793 46.080 46.080 46.080h109.938c8.903 0 14.848 5.945 14.848 14.848s-5.945 14.848-14.848 14.848h-109.966c-41.779-0.177-75.599-33.997-75.776-75.759v-573.571h-28.245c-8.903 0-14.848-5.945-14.848-14.848v-25.259c0-75.804 62.407-138.212 138.183-138.212h705.82c75.776 0 138.183 62.407 138.183 138.212v25.259c-1.479 7.396-7.424 14.848-16.356 14.848zM101.262 221.298h835.072v-92.132h-835.072v92.132zM979.428 89.031c0-59.42-49.038-108.459-108.487-108.459h-704.256c-59.449 0-108.487 49.038-108.487 108.487v10.382h921.259v-10.382zM601.998 191.573h-166.4c-8.932 0-14.876-5.945-14.876-14.848 0-8.932 5.945-14.876 14.848-14.876h167.908c8.932 0 14.876 5.973 14.876 14.876-1.479 8.903-7.424 14.848-16.356 14.848zM120.576 341.646v-50.517c0-8.903 5.945-14.848 14.848-14.848h234.78c8.903 0 14.848 5.945 14.848 14.848v50.517c-0.032 47.587-38.6 86.154-86.184 86.187h-25.233c37.148 10.411 65.394 44.572 65.394 84.708-0.161 49.168-39.976 88.984-89.129 89.145h-0.016c-49.181-0.145-89.012-39.967-89.173-89.129v-0.015c0-40.107 28.245-74.297 65.394-84.708h-19.342c-47.587-0.032-86.154-38.6-86.187-86.184v-0.003zM188.928 514.020c0 32.711 26.738 59.449 59.449 59.449 32.683 0 59.42-26.738 59.42-59.449s-26.738-59.449-59.449-59.449c-32.683 0-59.449 26.738-59.449 59.449zM355.328 341.646v-35.669h-204.999v35.669c0 31.204 25.259 56.462 56.462 56.462h90.624c32.711 0 57.97-25.259 57.97-56.462zM876.885 513.991c-0.145 49.181-39.967 89.012-89.129 89.173h-0.015c-49.168-0.161-88.984-39.976-89.145-89.129v-0.016c0-40.107 28.217-74.297 65.365-84.708h-17.835c-47.587-0.032-86.154-38.6-86.187-86.184v-50.52c0-8.903 5.973-14.848 14.876-14.848h234.78c8.903 0 14.848 5.945 14.848 14.848v50.517c-0.032 47.587-38.6 86.154-86.184 86.187h-25.262c35.669 8.932 63.886 43.093 63.886 84.708zM893.241 341.646v-35.669h-205.056v35.669c0 31.204 25.259 56.462 56.462 56.462h90.652c32.683 0 57.941-25.259 57.941-56.462zM787.74 454.571c-32.711 0-59.449 26.738-59.449 59.449s26.738 59.449 59.449 59.449 59.449-26.738 59.449-59.449-26.738-59.449-59.449-59.449zM347.904 665.6c-2.958-17.863-14.848-37.177-31.204-50.546-5.945-4.466-7.396-11.89-5.945-19.314 4.466-11.89 22.3-16.356 34.19-11.89 37.148 11.89 66.844 26.738 87.666 46.080 49.038-7.452 93.611 0 130.759 19.314 26.738-7.452 53.476-10.411 81.721-4.466 19.342-16.356 44.572-29.724 77.284-40.107 10.382-2.987 25.259-1.508 31.204 8.903 4.437 7.424 1.479 14.848-4.466 20.793-13.369 10.411-22.3 26.738-26.738 41.614 34.162 25.259 51.996 60.928 51.996 99.556 0 89.145-104.021 153.031-205.084 127.772-29.567 16.625-64.861 26.508-102.445 26.737h-0.069c-101.035 0-182.756-68.324-182.756-151.552 2.987-43.093 25.259-83.2 63.886-112.924zM747.634 777.017c0-29.724-16.356-57.941-44.601-78.734-5.945-4.466-8.903-11.89-8.903-19.342 1.479-11.89 5.945-25.259 11.89-37.148-17.356 6.582-32.2 16.179-44.599 28.271l0.026-0.026c-2.987 2.958-8.932 4.466-13.369 4.466-17.835-2.987-34.19-4.466-49.038-1.508 31.204 28.245 51.996 65.394 51.996 105.529 0 38.628-17.835 72.818-46.080 101.035 84.708 5.945 142.677-47.559 142.677-102.542zM468.281 901.831c84.679 0 153.031-54.983 153.031-121.828 0-78.763-92.132-138.212-190.18-118.898-1.086 0.358-2.336 0.565-3.634 0.565-3.997 0-7.536-1.958-9.711-4.967l-0.024-0.035c-14.876-14.876-34.19-26.738-57.97-35.669 8.932 14.848 16.356 31.204 17.835 47.559 1.479 7.396-2.958 14.848-8.903 19.314-32.711 23.78-52.025 56.462-52.025 92.132 0 66.844 68.352 121.828 151.58 121.828zM380.587 823.097h176.839c8.903 0 14.848 5.945 14.848 14.848s-5.945 14.848-14.848 14.848h-176.811c-8.932 0-14.876-5.945-14.876-14.848s7.424-14.848 14.876-14.848zM380.587 766.606h176.839c8.903 0 14.848 5.973 14.848 14.876s-5.945 14.848-14.848 14.848h-176.811c-8.932 0-14.876-5.945-14.876-14.848 0-7.424 7.424-14.876 14.876-14.876zM380.587 710.144h176.839c8.903 0 14.848 5.973 14.848 14.876s-5.945 14.848-14.848 14.848h-176.811c-8.932 0-14.876-5.945-14.876-14.848 0-7.424 7.424-14.876 14.876-14.876z" />
<glyph unicode="&#xe923;" glyph-name="eye" d="M513.588 671.851c-225.439 0-443.733-215.119-452.465-224.645-6.35-6.35-9.526-14.288-9.526-23.020s3.175-16.67 9.526-23.020c9.526-9.526 227.026-224.645 452.465-224.645s443.733 215.119 452.465 224.645c6.35 6.35 9.526 14.288 9.526 23.020s-3.175 16.67-9.526 23.020c-8.732 9.526-226.233 224.645-452.465 224.645zM513.588 242.406c-157.966 0-320.695 128.595-381.817 182.574 61.122 53.978 223.851 182.574 381.817 182.574s320.695-128.595 381.817-182.574c-61.122-53.978-223.851-182.574-381.817-182.574zM396.899 424.98c0-64.298 52.391-117.482 117.482-117.482s117.482 52.391 117.482 117.482-52.391 117.482-117.482 117.482-117.482-53.184-117.482-117.482zM565.978 424.98c0-28.577-23.020-52.391-52.391-52.391-28.577 0-52.391 23.020-52.391 52.391s23.020 52.391 52.391 52.391c28.577-0.794 52.391-23.814 52.391-52.391z" />
<glyph unicode="&#xe924;" glyph-name="comment" d="M814.528 883.2c77.12 0 139.648-68.736 139.648-153.6v-409.536c0-84.8-62.528-153.6-139.648-153.6h-424.704l-157.12-153.6v153.6h-23.232c-77.12 0-139.648 68.8-139.648 153.6v409.6c0 84.8 62.528 153.6 139.648 153.6h605.056zM814.528 960h-605.056c-115.712 0-209.472-103.168-209.472-230.4v-409.536c0-107.52 67.584-200.832 162.88-224.768v-82.432c0-30.272 16.192-57.792 41.28-70.144 25.152-12.416 54.592-7.36 75.136 12.8l137.28 134.144h397.952c115.712 0 209.472 103.168 209.472 230.4v409.6c0 127.104-93.76 230.336-209.472 230.336z" />
<glyph unicode="&#xe925;" glyph-name="like" d="M512-7.031c-14.578 0-28.633 5.281-39.586 14.875-41.367 36.172-81.25 70.164-116.438 100.148l-0.18 0.156c-103.164 87.914-192.25 163.836-254.234 238.625-69.289 83.609-101.563 162.883-101.563 249.484 0 84.141 28.852 161.766 81.234 218.586 53.008 57.492 125.742 89.156 204.828 89.156 59.109 0 113.242-18.688 160.891-55.539 24.047-18.602 45.844-41.367 65.047-67.922 19.211 26.555 41 49.32 65.055 67.922 47.648 36.852 101.781 55.539 160.891 55.539 79.078 0 151.82-31.664 204.828-89.156 52.383-56.82 81.227-134.445 81.227-218.586 0-86.602-32.266-165.875-101.555-249.477-61.984-74.797-151.063-150.711-254.211-238.617-35.25-30.031-75.195-64.078-116.656-100.336-10.945-9.578-25.008-14.859-39.578-14.859zM286.063 844.016c-62.133 0-119.211-24.797-160.734-69.828-42.141-45.711-65.352-108.898-65.352-177.93 0-72.836 27.070-137.977 87.766-211.211 58.664-70.789 145.922-145.148 246.953-231.25l0.188-0.156c35.32-30.102 75.359-64.227 117.031-100.664 41.922 36.508 82.023 70.688 117.414 100.836 101.023 86.102 188.273 160.445 246.938 231.234 60.688 73.234 87.758 138.375 87.758 211.211 0 69.031-23.211 132.219-65.352 177.93-41.516 45.031-98.602 69.828-160.727 69.828-45.516 0-87.305-14.469-124.203-43-32.883-25.438-55.789-57.594-69.219-80.094-6.906-11.57-19.063-18.477-32.523-18.477s-25.617 6.906-32.523 18.477c-13.422 22.5-36.328 54.656-69.219 80.094-36.898 28.531-78.688 43-124.195 43z" />
<glyph unicode="&#xe926;" glyph-name="user-arrow-circle" horiz-adv-x="1185" d="M699.335 455.282c76.225 8.349 135.006 72.378 135.006 150.135 0 4.644-0.21 9.24-0.62 13.777l0.043-0.585c0 90.169-19.74 163.328-134.428 163.328s-134.428-73.102-134.428-163.328c-0.368-3.953-0.577-8.548-0.577-13.193 0-77.758 58.78-141.786 134.331-150.075l0.675-0.060zM445.554 205.881c0 5.689 0 1.536 0 0zM953.173 201.614c0 1.479 0 10.468 0 0zM952.889 212.48c-2.503 157.127-22.756 201.899-180.053 230.229-19.435-17.472-45.277-28.157-73.614-28.157s-54.179 10.685-73.715 28.247l0.101-0.089c-155.307-28.046-177.095-72.135-179.94-225.109 0-12.516-0.341-13.141-0.398-11.719 0-2.731 0-7.737 0-16.498 0 0 37.376-75.378 253.952-75.378s253.952 75.378 253.952 75.378c0 5.689 0 9.557 0 12.231-0.206 2.419-0.323 5.235-0.323 8.079 0 0.98 0.014 1.957 0.042 2.93l-0.003-0.143zM672.939 960c-282.666-0.259-511.741-229.335-512-511.976v-1.731l-101.092 152.633c-5.991 8.377-15.686 13.772-26.641 13.772-18.034 0-32.654-14.62-32.654-32.654 0-6.34 1.807-12.257 4.933-17.266l-0.080 0.138 147.058-221.298c5.223-7.728 13.494-13.056 23.049-14.263l0.161-0.017c0.614-0.057 1.327-0.089 2.048-0.089s1.434 0.032 2.139 0.096l-0.091-0.007c0.031 0 0.068 0 0.105 0 8.378 0 16.004 3.223 21.705 8.496l-0.021-0.019 204.345 184.036c6.532 6 10.612 14.582 10.612 24.117 0 18.066-14.645 32.711-32.711 32.711-8.318 0-15.91-3.104-21.682-8.218l0.034 0.030-135.68-122.88v2.446c0 0.063 0 0.137 0 0.212 0 246.952 200.194 447.147 447.147 447.147s447.147-200.194 447.147-447.147c0-246.952-200.194-447.147-447.147-447.147-123.537 0-235.373 50.098-316.3 131.085l-0.003 0.003c-5.911 5.911-14.077 9.567-23.097 9.567-18.040 0-32.664-14.624-32.664-32.664 0-9.020 3.656-17.186 9.567-23.097v0c92.654-92.652 220.653-149.959 362.036-149.959 282.77 0 512 229.23 512 512s-229.23 512-512 512c-0.158 0-0.317 0-0.475 0h0.025z" />
<glyph unicode="&#xe927;" glyph-name="warning" horiz-adv-x="1120" d="M560.069 240.423c-31.791 0-57.562-25.771-57.562-57.562s25.771-57.562 57.562-57.562v0c30.929 1.119 55.578 26.462 55.578 57.562s-24.649 56.443-55.476 57.559l-0.102 0.003zM1092.897 36.388c17.127 28.568 27.256 63.031 27.256 99.859 0 36.509-9.953 70.693-27.295 99.986l0.5-0.912-360.603 624.503c-34.881 60.273-99.053 100.174-172.544 100.174-73.391 0-137.487-39.791-171.893-98.977l-0.509-0.949-361.064-625.176c-16.709-28.545-26.576-62.854-26.576-99.467 0-110.095 89.212-199.354 199.29-199.43h720.257c0.208-0.001 0.454-0.001 0.7-0.001 73.525 0 137.708 40.002 171.971 99.429l0.51 0.96zM1014.613 81.517c-19.079-33.114-54.281-55.048-94.606-55.048-0.177 0-0.355 0-0.532 0.001h-720.259c-0.257-0.002-0.561-0.003-0.865-0.003-39.606 0-74.201 21.452-92.801 53.371l-0.275 0.511c-9.407 15.78-14.969 34.799-14.969 55.118 0 20.145 5.467 39.014 14.999 55.203l-0.278-0.51 361.064 624.998c19.050 32.832 54.038 54.559 94.101 54.559 40.163 0 75.225-21.836 93.963-54.284l0.279-0.523 360.851-624.928c9.020-15.396 14.347-33.904 14.347-53.656 0-20.221-5.583-39.138-15.291-55.294l0.271 0.486zM545.793 644.525c-25.978-8.009-44.53-31.803-44.53-59.929 0-1.074 0.027-2.141 0.080-3.201l-0.006 0.149c1.381-18.207 2.55-36.627 3.932-54.799 3.932-69.322 7.828-137.228 11.76-206.55 0.914-22.577 19.438-40.534 42.156-40.534 0.323 0 0.645 0.004 0.966 0.011l-0.048-0.001c0.015 0 0.033 0 0.050 0 23.371 0 42.391 18.628 43.022 41.847l0.001 0.058c0 14.169 0 27.417 1.381 41.905 2.55 44.456 5.313 88.876 7.828 133.331 1.381 28.799 3.932 57.562 5.313 86.361 0.014 0.529 0.022 1.152 0.022 1.777 0 9.746-1.961 19.034-5.51 27.49l0.174-0.468c-9.216 20.347-29.345 34.246-52.721 34.246-4.926 0-9.709-0.617-14.273-1.779l0.399 0.086z" />
<glyph unicode="&#xe928;" glyph-name="close" d="M633.702 448l365.107 365.107c16.149 15.664 26.171 37.565 26.171 61.807 0 47.534-38.534 86.067-86.067 86.067-24.242 0-46.143-10.022-61.786-26.15l-0.021-0.022-365.107-365.107-365.107 365.107c-15.473 15.008-36.604 24.261-59.896 24.261-47.534 0-86.067-38.534-86.067-86.067 0-23.292 9.252-44.423 24.282-59.918l-0.021 0.022 365.107-365.107-365.107-365.056c-15.008-15.473-24.261-36.604-24.261-59.896 0-47.534 38.534-86.067 86.067-86.067 23.292 0 44.423 9.252 59.918 24.282l-0.022-0.021 365.107 365.107 365.107-365.107c15.664-16.149 37.565-26.171 61.807-26.171 47.534 0 86.067 38.534 86.067 86.067 0 24.242-10.022 46.143-26.15 61.786l-0.022 0.021z" />
<glyph unicode="&#xe929;" glyph-name="check-circle" d="M516.494 339.285l447.943 491.634 59.108-53.874-502.955-551.822-274.148 260.437 55.068 57.97zM992.484 625.493l-62.578-68.665c8.977-32.922 14.134-70.721 14.134-109.726 0-239.129-193.852-432.981-432.981-432.981s-432.981 193.852-432.981 432.981c0 239.129 193.852 432.981 432.981 432.981 110.943 0 212.141-41.726 288.756-110.341l-0.412 0.362 53.931 59.051c-89.632 78.924-208.003 127.092-337.624 127.092-282.77 0-512-229.23-512-512 0-139.53 55.813-266.023 146.332-358.373l-0.083 0.085c92.691-92.878 220.843-150.337 362.414-150.337 282.77 0 512 229.23 512 512 0 63.87-11.695 125.009-33.061 181.392l1.171-3.52z" />
<glyph unicode="&#xe92a;" glyph-name="schedule-button" d="M512 960c-282.77 0-512-229.23-512-512s229.23-512 512-512c282.77 0 512 229.23 512 512v0c-0.838 282.432-229.568 511.162-511.92 512h-0.080zM512 38.4c-226.216 0-409.6 183.384-409.6 409.6s183.384 409.6 409.6 409.6c226.216 0 409.6-183.384 409.6-409.6v0c-0.677-225.943-183.657-408.923-409.535-409.6h-0.065zM537.6 704h-76.8v-307.2l266.24-163.84 40.96 66.56-230.4 138.24z" />
<glyph unicode="&#xe92b;" glyph-name="noun-rocket" horiz-adv-x="677" d="M328.301 131.588l-0.138-185.391c0-5.606 4.561-10.156 10.134-10.134 0.022 0 0.039 0 0.063 0 5.582 0 10.107 4.513 10.124 10.092v0.001l0.097 185.422c0 5.606-4.508 10.124-10.124 10.124-0.018 0-0.033 0-0.053 0-5.582 0-10.103-4.521-10.103-10.103 0-0.007 0-0.015 0-0.022v0.001zM342.871 959.301c-0.544 0.207-1.18 0.364-1.833 0.452l-0.041 0.006c-0.638 0.108-1.243 0.299-1.925 0.225-0.638 0-1.243-0.118-1.851-0.222-0.704-0.096-1.337-0.254-1.944-0.479l0.063 0.023c-0.605-0.225-1.184-0.692-1.766-1.031-0.383-0.236-0.86-0.373-1.169-0.732-0.171-0.118-0.222-0.339-0.352-0.467-0.118-0.108-0.352-0.181-0.436-0.289-49.757-55.766-89.011-118.361-118.202-184.737-0.393-0.446-0.913-0.8-1.233-1.361-0.705-1.272-1.148-2.782-1.221-4.384l-0.001-0.025c-75.815-176.767-78.217-380.766 1.881-562.138v-0.031l0.084-0.161c0.191-0.467 0.595-0.819 0.85-1.233 0.427-0.668 0.796-1.35 1.34-1.894 0.491-0.48 1.085-0.745 1.733-1.139 0.511-0.339 0.978-0.766 1.532-0.978 0.864-0.349 1.733-0.427 2.66-0.521 0.414-0.063 0.736-0.236 1.149-0.245h0.157s0.020-0.020 0.031 0l232.556-0.020c0.554 0.010 1.051 0.289 1.616 0.352 0.574 0.053 0.947 0.171 1.498 0.33 1.87 0.605 3.564 1.575 4.776 3.074 0.552 0.654 1.017 1.406 1.357 2.222l0.023 0.056c80.685 182.030 78.506 386.784 2.137 564.062-0.236 0.904-0.128 1.831-0.54 2.68-0.275 0.48-0.722 0.796-1.056 1.179-29.088 66.478-68.305 129.048-118.001 184.945-0.147 0.161-0.339 0.222-0.467 0.319-0.138 0.161-0.222 0.383-0.339 0.48-0.363 0.289-0.819 0.457-1.233 0.682-0.722 0.275-1.248 0.672-1.817 0.978zM339.042 934.137c40.814-47.25 75.723-101.267 102.56-159.755l1.739-4.228c-30.275-16.145-66.208-25.626-104.356-25.626-38.205 0-74.19 9.505-105.713 26.286l1.217-0.593c28.734 62.678 63.714 116.657 105.3 164.779l-0.736-0.87zM448.014 218.171l-219.027 0.031c-74.186 172.407-72.55 365.114-2.464 533.319 32.657-17.134 71.342-27.19 112.38-27.19s79.723 10.056 113.736 27.835l-1.356-0.646c69.762-168.238 71.176-360.956-3.285-533.345zM252.298 597.197c-17.801-21.984-27.552-50.003-27.596-79.026-0.044-66.847 51.056-121.248 113.937-121.192 33.286 0 64.838 15.41 86.542 42.21 17.781 21.95 27.566 49.972 27.576 79.002 0 32.19-11.744 62.614-33.094 85.458-21.536 23.055-50.248 35.744-80.863 35.71-33.222 0.074-64.818-15.387-86.503-42.156zM404.827 589.774c17.825-19.078 27.639-44.504 27.629-71.613-0.053-24.439-8.224-47.919-23.109-66.296-17.822-22.003-43.634-34.655-70.719-34.616-51.672-0.020-93.71 45.28-93.669 100.931 0.020 24.415 8.199 47.904 23.072 66.276 17.822 21.993 43.654 34.636 70.763 34.626 24.928 0.010 48.377-10.412 66.030-29.309zM25.166 82.829c37.311 51.167 86.193 91.737 142.94 118.304l2.27 0.953c3.528 1.656 5.924 5.181 5.924 9.263 0 1.347-0.262 2.633-0.736 3.808l0.027-0.069c-23.52 56.864-40.646 122.834-48.245 191.671l-0.293 3.296c-0.438 4.009-3.168 7.287-6.84 8.515l-0.073 0.023c-0.949 0.327-2.044 0.515-3.181 0.515-2.952 0-5.604-1.267-7.454-3.292l-0.008-0.009c-81.461-88.638-118.978-210.008-102.557-328.489 0.53-4.084 3.554-7.423 7.594-8.454 3.976-0.947 7.869 0.181 10.633 3.947zM108.86 384.066l0.819 1.011c8.864-63.067 24.098-119.909 45.344-173.728l-1.778 5.114c-50.964-25.309-93.87-59.466-128.371-100.878l-0.509-0.628c-6.879 96.616 23.256 193.473 84.501 269.106zM662.288 78.882c2.159 0.574 4.105 1.766 5.472 3.467 1.128 1.393 1.915 3.103 2.149 4.978 16.75 119.671-20.451 239.405-102.080 328.467-1.881 1.994-4.535 3.232-7.483 3.232-1.137 0-2.234-0.185-3.258-0.529l0.074 0.024c-3.742-1.256-6.465-4.561-6.912-8.528-8.015-72.153-25.226-138.089-50.593-199.818l1.78 4.896c-2.009-5.052 0.309-10.795 5.199-13.028 58.983-27.502 107.828-68.098 144.317-118.256l0.736-1.056c1.843-2.525 4.793-4.141 8.121-4.141 0.881 0 1.74 0.112 2.554 0.329l-0.070-0.017zM567.567 385.029c53.548-65.161 86.014-149.414 86.014-241.254 0-10.17-0.4-20.252-1.183-30.22l0.085 1.315c-34.941 42.076-77.808 76.249-126.483 100.512l-2.257 1.017c19.579 48.712 34.901 105.555 43.349 164.612l0.474 4.009zM272.369 132.938l-24.556-185.476c-0.031-0.282-0.041-0.607-0.041-0.93 0-5.602 4.544-10.147 10.147-10.147 4.995 0 9.145 3.609 9.993 8.355l0.010 0.061 24.576 185.456c0.032 0.288 0.044 0.628 0.044 0.972 0 5.608-4.549 10.156-10.156 10.156-5.007 0-9.169-3.618-10.007-8.388l-0.010-0.061zM420.11-63.917c5.013 0.643 8.846 4.885 8.846 10.016 0 0.477-0.032 0.939-0.096 1.397l0.007-0.052-24.237 185.432c-0.594 5.080-4.87 8.984-10.059 8.984-5.593 0-10.124-4.53-10.124-10.124 0-0.544 0.041-1.076 0.126-1.599l-0.008 0.057 24.247-185.432c0.672-5.498 5.728-9.382 11.305-8.679z" />
<glyph unicode="&#xe92d;" glyph-name="refresh" horiz-adv-x="910" d="M435.94 62.748l5.973-8.988c1.86-2.359 3.124-5.27 3.519-8.45l0.008-0.084c0.109-0.858 0.172-1.851 0.172-2.859 0-2.014-0.249-3.971-0.719-5.839l0.035 0.165c-0.786-2.868-2.162-5.35-3.998-7.414l0.016 0.019c-2.091-2.427-4.384-4.576-6.886-6.462l-0.111-0.080-10.012-5.006-148.992-76.971c-2.837-1.549-6.214-2.46-9.804-2.46-2.186 0-4.293 0.338-6.272 0.964l0.147-0.040c-5.606 1.834-10.166 5.563-13.025 10.415l-0.060 0.109-2.958 7.964c-2.101 3.164-3.353 7.050-3.353 11.229 0 2.081 0.31 4.090 0.888 5.983l-0.038-0.145c1.471 5.751 5.319 10.401 10.409 12.919l0.115 0.052 80.953 41.984h-1.991c-0.683 0-1.308 0.341-1.991 0.967-32.718 8.093-61.361 19.070-88.185 33.058l2.169-1.030c-29.316 15.143-54.531 31.58-77.913 50.219l0.942-0.726c-24.17 19.232-45.472 40.227-64.38 63.263l-0.587 0.737c-18.554 22.632-35.472 48.014-49.771 74.998l-1.201 2.485c-12.042 22.784-22.936 49.457-31.215 77.257l-0.814 3.184c-7.38 24.392-12.86 52.965-15.365 82.387l-0.108 1.581c-0.984 11.259-1.545 24.36-1.545 37.593 0 16.876 0.912 33.54 2.691 49.943l-0.179-2.032c3.417 31.563 9.949 60.358 19.386 87.802l-0.84-2.81c8.647 27.989 20.139 54.5 34.475 79.474 14.336 25.031 30.834 48.469 49.493 70.485 18.791 22.044 39.094 41.698 61.124 59.279l0.885 0.682c21.537 17.198 45.782 32.824 71.548 45.883l2.407 1.107c3.946 2.286 8.682 3.634 13.733 3.634 3.316 0 6.496-0.581 9.444-1.648l-0.193 0.061c12.68-4.060 21.699-15.744 21.699-29.533 0-11.883-6.698-22.202-16.524-27.388l-0.169-0.081c-45.524-23.988-84.116-54.772-116.040-91.506l-0.411-0.484c-31.645-36.121-56.441-79.133-71.811-126.397l-0.723-2.57c-11.371-34.026-17.931-73.204-17.931-113.914 0-11.468 0.521-22.814 1.539-34.017l-0.106 1.442c4.38-49.607 17.863-96.768 40.505-141.426 12.686-23.324 27.307-45.17 44.032-65.479 33.034-40.156 73.448-72.918 119.345-96.52l2.113-0.987c23.666-11.947 48.469-21.333 74.524-27.989 2.617-0.683 5.12-1.308 7.396-1.991 2.389-0.683 4.892-1.365 7.566-1.991l-58.994 91.932c-2.896 4.558-4.615 10.11-4.615 16.064 0 0.693 0.023 1.381 0.069 2.062l-0.005-0.092c0.398 6.656 3.186 11.321 8.533 13.995l7.964 5.006c3.424 2.086 7.565 3.32 11.995 3.32 8.434 0 15.822-4.476 19.919-11.183l0.058-0.102 92.046-144.043v-0.967zM852.764 640.626c13.369-25.998 24.007-52.85 32.028-80.498 7.964-27.648 13.141-55.637 15.474-83.968s1.991-56.832-0.967-85.504c-3.417-31.563-9.949-60.358-19.386-87.802l0.84 2.81c-18.385-57.984-46.583-108.14-83.008-151.099l0.519 0.628c-18.318-21.618-38.628-41.472-60.985-59.449-21.142-17.143-44.892-32.751-70.136-45.883l-2.34-1.108c-2.103-1.115-4.572-2.138-7.142-2.932l-0.311-0.083c-2.202-0.584-4.731-0.919-7.337-0.919-5.793 0-11.198 1.655-15.771 4.519l0.125-0.073c-4.985 2.992-8.935 7.253-11.471 12.343l-0.078 0.173c-2.251 4.134-3.574 9.053-3.574 14.282 0 3.46 0.579 6.784 1.647 9.882l-0.064-0.213c2.544 7.837 7.902 14.157 14.854 17.896l0.165 0.081c88.263 46.404 154.726 124.246 185.222 218.289l0.748 2.667c11.573 34.445 18.251 74.11 18.251 115.334 0 63.076-15.634 122.5-43.239 174.609l0.98-2.028c-24.986 47.746-57.873 87.972-97.358 120.474l-0.662 0.529c-38.831 32.049-85.396 56.252-136.395 69.432l-2.47 0.542c-5.371 1.869-11.776 3.455-18.37 4.471l-0.631 0.080c-8.034 1.151-14.48 2.344-20.844 3.757l1.843-0.343 58.994-91.932c3.3-5.348 4.665-11.378 3.982-17.977-0.683-6.656-3.641-11.378-8.988-13.995l-7.964-5.006c-3.164-2.101-7.050-3.353-11.229-3.353-2.081 0-4.090 0.31-5.983 0.888l0.145-0.038c-5.964 1.61-10.867 5.365-13.937 10.366l-0.058 0.101-91.876 143.986h-1.138l-5.006 10.012c-1.84 2.363-3.085 5.275-3.462 8.452l-0.008 0.081c-0.119 0.894-0.186 1.928-0.186 2.978 0 1.951 0.234 3.847 0.675 5.662l-0.034-0.163c0.778 2.889 2.155 5.392 3.999 7.472l-0.017-0.019c2.106 2.428 4.417 4.577 6.939 6.46l0.115 0.082 10.012 5.006 148.992 76.971c3.109 1.561 6.776 2.475 10.655 2.475 2.448 0 4.811-0.364 7.038-1.040l-0.171 0.045c6.258-1.707 11.15-5.12 14.45-10.468l3.015-8.021c1.755-2.65 2.801-5.904 2.801-9.401 0-2.771-0.656-5.389-1.822-7.707l0.045 0.099c-2.559-5.866-6.696-10.643-11.877-13.92l-0.127-0.075-79.986-39.993c9.901-1.448 18.675-3.532 27.142-6.296l-1.144 0.323c32.962-8.858 61.528-19.948 88.532-33.67l-2.572 1.186c27.307-13.653 52.679-30.037 76.004-49.038 23.324-18.944 44.658-40.277 64-63.943s35.954-49.493 49.948-77.483z" />
<glyph unicode="&#xe92e;" glyph-name="community-inactive" d="M884.975 400.486h-0.102c-8.172-0.063-14.974-5.847-16.603-13.542l-0.020-0.112c-20.695-90.82-72.555-167.094-143.496-218.743l-1.059-0.734c-4.401-3.143-7.237-8.234-7.237-13.987 0-2.656 0.604-5.171 1.683-7.415l-0.045 0.103c2.836-5.749 8.657-9.634 15.385-9.634 3.79 0 7.291 1.233 10.126 3.319l-0.047-0.033c78.721 57.226 135.423 140.588 157.515 237.142l0.522 2.713c0.27 1.139 0.424 2.446 0.424 3.789 0 9.432-7.622 17.085-17.042 17.135h-0.005zM704.478 788.787c5.137 3.006 8.533 8.496 8.533 14.78s-3.396 11.774-8.452 14.736l-0.081 0.044c-56.392 32.23-123.936 51.234-195.919 51.234-0.17 0-0.34 0-0.51 0h0.026c-69.564 0-135.031-17.783-192.205-48.981-5.211-2.979-8.665-8.504-8.665-14.836 0-6.276 3.395-11.76 8.448-14.714l0.081-0.044 0.102-0.068c2.43-1.42 5.351-2.259 8.467-2.259 3.018 0 5.853 0.787 8.31 2.166l-0.086-0.044c50.624 28.104 111.019 44.646 175.278 44.646 0.095 0 0.19 0 0.285 0h-0.015c65.092 0 126.293-16.998 179.439-46.729 2.418-1.401 5.319-2.228 8.414-2.228s5.996 0.827 8.496 2.272l-0.082-0.044 0.137 0.068zM131.345 400.486h-0.137c-10.957 0-18.978-10.24-16.623-20.924 23.066-101.221 81.629-185.999 161.613-242.451l1.271-0.851c8.533-6.007 20.446-3.174 25.156 6.144l0.034 0.068c1.138 2.228 1.804 4.859 1.804 7.646 0 5.848-2.935 11.010-7.413 14.094l-0.058 0.038c-74.336 52.44-127.914 130.007-148.548 220.134l-0.478 2.483c-1.674 7.785-8.465 13.547-16.615 13.619h-0.008zM626.62 295.595c-0.078 63.271-51.348 114.542-114.612 114.62h-0.008c-63.279-0.058-114.561-51.34-114.62-114.614v-0.006c0.078-63.271 51.348-114.542 114.612-114.62h0.008c63.279 0.058 114.561 51.34 114.62 114.614v0.006zM431.514 295.595c0.039 44.436 36.051 80.447 80.483 80.486h0.004c44.436-0.039 80.447-36.051 80.486-80.483v-0.004c-0.039-44.436-36.051-80.447-80.483-80.486h-0.004c-44.436 0.039-80.447 36.051-80.486 80.483v0.004zM648.841 40.448c1.058-7.899 7.712-13.94 15.795-14.029h2.296c9.455 0 17.135 8.192 15.872 17.579-9.045 63.773-63.238 112.292-128.777 112.367h-84.044c-65.542-0.091-119.726-48.601-128.704-111.674l-0.081-0.693c-0.064-0.533-0.1-1.15-0.1-1.776 0-8.728 7.076-15.804 15.804-15.804 0.059 0 0.118 0 0.177 0.001h2.278c8.092 0.089 14.745 6.13 15.795 13.946l0.009 0.083c7.152 46.516 46.867 81.73 94.817 81.783h84.042c47.955-0.054 87.67-35.268 94.754-81.247l0.068-0.536zM290.441 708.13c-0.078 63.271-51.348 114.542-114.612 114.62h-0.008c-63.271-0.078-114.542-51.348-114.62-114.612v-0.008c0.058-63.279 51.34-114.561 114.614-114.62h0.006c63.271 0.078 114.542 51.348 114.62 114.612v0.008zM95.334 708.13c0.039 44.436 36.051 80.447 80.483 80.486h0.004c44.436-0.039 80.447-36.051 80.486-80.483v-0.004c-0.039-44.436-36.051-80.447-80.483-80.486h-0.004c-44.436 0.039-80.447 36.051-80.486 80.483v0.004zM5.018 456.533c-0.064-0.533-0.1-1.15-0.1-1.776 0-8.728 7.076-15.804 15.804-15.804 0.059 0 0.118 0 0.177 0.001h2.278c8.092 0.089 14.745 6.13 15.795 13.946l0.009 0.083c7.152 46.516 46.867 81.73 94.817 81.783h84.042c47.95-0.069 87.656-35.275 94.754-81.246l0.068-0.537c1.058-7.899 7.712-13.94 15.795-14.029h2.296c9.455 0 17.169 8.192 15.872 17.579-9.045 63.773-63.238 112.292-128.777 112.367h-84.044c-65.542-0.091-119.726-48.601-128.704-111.674l-0.081-0.693zM962.799 708.13c-0.078 63.271-51.348 114.542-114.612 114.62h-0.008c-63.271-0.078-114.542-51.348-114.62-114.612v-0.008c0.078-63.271 51.348-114.542 114.612-114.62h0.008c63.279 0.058 114.561 51.34 114.62 114.614v0.006zM767.693 708.13c0.039 44.436 36.051 80.447 80.483 80.486h0.004c44.436-0.039 80.447-36.051 80.486-80.483v-0.004c-0.039-44.436-36.051-80.447-80.483-80.486h-0.004c-44.436 0.039-80.447 36.051-80.486 80.483v0.004zM1003.11 438.955c9.455 0 17.169 8.192 15.872 17.579-9.059 63.766-63.244 112.276-128.776 112.367h-84.045c-65.556-0.073-119.758-48.589-128.738-111.673l-0.081-0.694c-0.064-0.533-0.1-1.15-0.1-1.776 0-8.728 7.076-15.804 15.804-15.804 0.071 0 0.142 0 0.213 0.001h2.276c8.092 0.089 14.745 6.13 15.795 13.946l0.009 0.083c7.152 46.516 46.867 81.73 94.817 81.783h84.042c47.95-0.069 87.656-35.275 94.754-81.246l0.068-0.537c1.058-7.899 7.712-13.94 15.795-14.029h2.296z" />
<glyph unicode="&#xe92f;" glyph-name="document" horiz-adv-x="934" d="M834.56 929.882h-528.595c-24.589-0.108-46.123-13.084-58.229-32.536l-0.169-0.292-183.898-184.802c-20.244-12.363-33.551-34.337-33.551-59.419 0-0.086 0-0.171 0-0.257v0.013-623.827c0-0.045 0-0.098 0-0.151 0-38.127 30.857-69.047 68.96-69.15h735.483c38.099 0 68.969 31.021 68.969 69.301v831.849c0 0.036 0 0.078 0 0.121 0 38.127-30.857 69.047-68.96 69.15h-0.010zM236.996 788.48v-66.56h-66.199l66.168 66.56zM834.62 28.732h-735.563v621.568h1.385l1.385 1.385h204.107v205.192l1.385 1.385v1.385h526.336l0.904-830.916zM675.689 412.311h-450.108c-18.643 0-33.732-14.487-33.732-32.346s15.089-32.346 33.732-32.346h450.078c18.643 0 33.732 14.456 33.732 32.346 0 17.86-15.089 32.346-33.732 32.346zM610.786 250.549h-384.964c-18.763 0-33.973-14.456-33.973-32.346 0-17.86 15.209-32.346 33.973-32.346h384.964c18.733 0 33.943 14.487 33.943 32.346 0 17.89-15.209 32.346-33.943 32.346zM523.445 477.003h145.559c40.203 0 72.794 32.591 72.794 72.794v0 145.559c0 40.203-32.591 72.794-72.794 72.794h-145.559c-40.203 0-72.794-32.591-72.794-72.794v0-145.559c0-40.203 32.591-72.794 72.794-72.794v0zM523.445 695.356h145.559v-145.559h-145.559v145.559z" />
<glyph unicode="&#xe930;" glyph-name="full-screen" d="M1024 277.333v-341.333h-341.333l131.072 131.072-165.205 162.475 81.92 81.92 162.475-165.205 131.072 131.072zM341.333-64h-341.333v341.333l131.072-131.072 162.475 165.205 81.92-81.92-165.205-162.475 131.072-131.072zM0 618.667v341.333h341.333l-131.072-131.072 165.205-162.475-81.92-81.92-162.475 165.205-131.072-131.072zM682.667 960h341.333v-341.333l-131.072 131.072-162.475-165.205-81.92 81.92 165.205 162.475-131.072 131.072z" />
<glyph unicode="&#xe931;" glyph-name="refer-inactive" horiz-adv-x="1201" d="M388.061 554.567c0-31.982-18.149-57.909-40.536-57.909s-40.536 25.927-40.536 57.909c0 31.982 18.149 57.909 40.536 57.909s40.536-25.927 40.536-57.909zM776.086 554.567c0-31.982-18.149-57.909-40.536-57.909s-40.536 25.927-40.536 57.909c0 31.982 18.149 57.909 40.536 57.909s40.536-25.927 40.536-57.909zM758.749 178.088c-75.317-69.491-173.762-115.818-283.825-115.818-0.526-0.002-1.147-0.004-1.769-0.004-229.336 0-415.25 185.914-415.25 415.25 0 0.622 0.001 1.244 0.004 1.866v-0.097c-0.002 0.526-0.004 1.147-0.004 1.769 0 229.336 185.914 415.25 415.25 415.25 0.622 0 1.244-0.001 1.866-0.004h-0.097c0.526 0.002 1.147 0.004 1.769 0.004 229.336 0 415.25-185.914 415.25-415.25 0-0.622-0.001-1.244-0.004-1.866v0.097c0-86.863-28.954-167.971-75.282-237.462h34.745c11.582 11.582 23.164 23.164 34.745 28.954 34.745 63.7 52.118 133.191 52.118 208.508 0 254.835-208.508 463.342-463.342 463.342s-463.342-208.508-463.342-463.342 208.508-463.342 463.342-463.342c121.644 0 225.88 46.327 312.779 121.609-17.373 23.164-23.164 28.954-28.954 40.536zM996.211-42.002c-63.735 0-121.644 28.954-150.599 86.863-10.755 22.028-17.14 47.899-17.372 75.238l-0.001 0.079c0 5.791-17.373 28.954-28.954 40.536-23.164 28.954-34.745 40.536-28.954 52.118 5.791 11.617 28.954 11.617 52.118 11.617 11.582 0 34.745 0 40.536 5.791 11.582 23.164 34.745 34.745 57.909 46.327 86.863 40.536 191.135 11.582 231.671-69.526 23.199-40.536 23.199-86.863 11.582-127.4-11.582-46.327-46.327-81.108-86.863-98.481-23.164-17.373-52.118-23.164-81.073-23.164zM787.703 201.287c5.791-5.826 17.373-23.199 23.164-28.954 23.164-23.199 34.745-40.572 34.745-52.153 0-23.164 5.791-40.536 17.373-63.7 40.536-69.526 133.226-98.481 208.508-57.909 34.745 17.373 63.7 52.118 75.282 86.863s5.791 81.073-11.582 110.027c-40.536 69.526-133.191 98.481-208.508 57.909-23.164-11.546-40.536-23.128-46.327-34.71-11.582-11.617-28.954-11.617-57.909-11.617-11.582 0-28.954 0-34.745-5.791zM1065.702 160.715h-127.435c-6.212 0.439-11.143 5.37-11.58 11.542l-0.002 0.040c0 5.791 5.791 11.582 11.582 11.582h127.435c5.791 0 11.582-5.791 11.582-11.582s-11.582-11.582-11.582-11.582zM1065.702 79.642h-127.435c-6.212 0.439-11.143 5.37-11.58 11.542l-0.002 0.040c0 5.791 5.791 11.582 11.582 11.582h127.435c5.791 0 11.582-5.791 11.582-11.582s-11.582-11.582-11.582-11.582zM781.912 392.386c0-127.4-104.271-231.636-231.671-231.636-127.435 0-231.706 104.236-231.706 231.636h463.378z" />
<glyph unicode="&#xe932;" glyph-name="right-arrow" horiz-adv-x="614" d="M153.19 848.589c-5.129 5.596-12.472 9.092-20.632 9.092-8.543 0-16.191-3.832-21.319-9.871l-0.033-0.040c-5.489-6.358-8.833-14.703-8.833-23.829 0-8.732 3.061-16.749 8.169-23.036l-0.053 0.067 321.843-359.219-321.741-346.726c-5.055-6.22-8.116-14.236-8.116-22.968 0-9.126 3.344-17.47 8.873-23.876l-0.040 0.047c5.161-6.079 12.809-9.911 21.352-9.911 8.16 0 15.503 3.496 20.613 9.071l0.019 0.021 358.707 394.24-358.81 407.040z" />
<glyph unicode="&#xe933;" glyph-name="star-unfilled" horiz-adv-x="1055" d="M528.043 897.133l-120.584-250.415-21.628-44.28-321.474-47.414 232.851-232.882-7.199-46.359-47.414-278.218 285.448 152.483 285.417-152.483-47.383 278.218-7.23 46.359 232.882 232.882-322.529 47.414-141.188 294.695zM528.043 960c15.112 0 28.858-3.786 41.208-11.326 12.381-7.571 21.628-17.873 27.834-30.937l119.529-248.336 275.115-40.184c13.746-2.048 26.128-7.54 37.112-16.477s18.897-20.263 23.707-34.009c4.096-13.033 4.655-26.283 1.552-39.657-3.103-13.405-9.806-25.259-20.108-35.561l-200.952-200.952 46.39-279.273c2.731-13.715 1.179-27.12-4.655-40.153s-14.584-23.707-26.283-31.961c-6.182-4.442-13.383-7.969-21.138-10.182l-0.49-0.12c-6.798-1.936-14.606-3.049-22.674-3.049-6.568 0-12.964 0.738-19.11 2.135l0.575-0.11c-7.020 1.648-13.21 4.135-18.891 7.408l0.334-0.178-239.057 128.776-240.112-128.776c-5.492-3.444-11.326-5.865-17.501-7.23-6.206-1.365-12.381-2.048-18.556-2.048-8.254 0-15.981 1.024-23.18 3.103-21.365 6.792-38.328 22.073-47.219 41.779l-0.195 0.484c-3.764 7.976-5.961 17.325-5.961 27.188 0 4.59 0.476 9.068 1.381 13.388l-0.074-0.423 46.39 279.273-200.921 200.921c-9.687 9.427-16.747 21.506-20.007 35.065l-0.101 0.496c-3.103 13.374-2.576 26.593 1.552 39.657 4.81 13.033 12.722 24.204 23.707 33.513 10.101 8.727 22.741 14.78 36.671 16.922l0.41 0.052 275.146 40.184 119.529 248.336c6.206 13.064 15.453 23.366 27.803 30.937 11.49 7.115 25.424 11.331 40.343 11.331 0.315 0 0.63-0.002 0.944-0.006h-0.048z" />
<glyph unicode="&#xe934;" glyph-name="star-filled" horiz-adv-x="1055" d="M528.043 960c15.112 0 28.858-3.786 41.208-11.326 12.381-7.571 21.628-17.873 27.834-30.937l119.529-248.336 275.115-40.184c13.746-2.048 26.128-7.54 37.112-16.477s18.897-20.263 23.707-34.009c4.096-13.033 4.655-26.283 1.552-39.657-3.103-13.405-9.806-25.259-20.108-35.561l-200.952-200.952 46.39-279.273c2.731-13.715 1.179-27.12-4.655-40.153s-14.584-23.707-26.283-31.961c-6.182-4.442-13.383-7.969-21.138-10.182l-0.49-0.12c-6.798-1.936-14.606-3.049-22.674-3.049-6.568 0-12.964 0.738-19.11 2.135l0.575-0.11c-7.020 1.648-13.21 4.135-18.891 7.408l0.334-0.178-239.057 128.776-240.112-128.776c-5.492-3.444-11.326-5.865-17.501-7.23-6.206-1.365-12.381-2.048-18.556-2.048-8.254 0-15.981 1.024-23.18 3.103-21.365 6.792-38.328 22.073-47.219 41.779l-0.195 0.484c-3.764 7.976-5.961 17.325-5.961 27.188 0 4.59 0.476 9.068 1.381 13.388l-0.074-0.423 46.39 279.273-200.921 200.921c-9.687 9.427-16.747 21.506-20.007 35.065l-0.101 0.496c-3.103 13.374-2.576 26.593 1.552 39.657 4.81 13.033 12.722 24.204 23.707 33.513 10.101 8.727 22.741 14.78 36.671 16.922l0.41 0.052 275.146 40.184 119.529 248.336c6.206 13.064 15.453 23.366 27.803 30.937 11.49 7.115 25.424 11.331 40.343 11.331 0.315 0 0.63-0.002 0.944-0.006h-0.048z" />
<glyph unicode="&#xe935;" glyph-name="add" d="M976.414 497.453c13.192 0 24.456-4.698 33.732-14.035 9.216-9.336 13.854-20.721 13.854-34.093s-4.638-24.696-13.854-34.093c-8.332-8.661-20.021-14.041-32.966-14.041-0.269 0-0.538 0.002-0.807 0.007l0.040-0.001h-420.804v-417.009c-0.010-13.055-5.302-24.872-13.854-33.431v0c-8.21-9.045-20.012-14.701-33.136-14.701-0.209 0-0.418 0.001-0.627 0.004h0.032c-0.195-0.003-0.425-0.005-0.655-0.005-13.124 0-24.927 5.657-33.104 14.665l-0.033 0.037c-8.552 8.559-13.844 20.376-13.854 33.429v417.011h-412.792c-12.99 0.032-24.719 5.399-33.12 14.025l-0.010 0.010c-8.911 8.344-14.463 20.18-14.463 33.314 0 0.274 0.002 0.548 0.007 0.821l-0.001-0.041c0 13.372 4.819 24.696 14.577 34.093 8.396 8.622 20.102 13.985 33.060 14.035h412.741v414.419c0 13.372 4.638 24.696 13.914 34.093 8.332 8.661 20.021 14.041 32.966 14.041 0.269 0 0.538-0.002 0.807-0.007l-0.040 0.001c13.252 0 24.456-4.698 33.732-14.035s13.854-20.721 13.854-34.093v-414.419h420.744z" />
<glyph unicode="&#xe936;" glyph-name="noun-edit-calendar" horiz-adv-x="976" d="M601.136 823.546h-351.423c0-8.787 1.262-17.551 2.524-25.052h350.16c-1.262 7.501-1.262 16.265-1.262 25.028zM262.287 911.158c15.050 0 30.101-25.052 36.388-62.583h25.1c-6.287 51.319-30.148 87.612-61.488 87.612-36.412 0-62.774-48.819-62.774-112.64 0-8.787 0-17.551 1.262-25.052 6.287-51.319 30.125-87.635 61.511-87.635v25.052c-15.074 0-30.125 25.028-36.412 62.583-1.262 7.501-1.262 16.265-1.262 25.028 0 50.081 20.099 87.635 37.674 87.635zM688.985 911.158c15.074 0 30.125-25.052 36.412-62.583h25.1c-6.311 51.319-30.125 87.612-61.511 87.612-36.388 0-62.75-48.819-62.75-112.64 0-8.787 0-17.551 1.262-25.052 6.287-51.319 30.125-87.635 61.488-87.635v25.052c-15.050 0-30.101 25.028-36.388 62.583-1.262 7.501-1.262 16.265-1.262 25.028 0 50.081 20.099 87.635 37.65 87.635zM362.687 460.526c0-20.741-16.856-37.555-37.65-37.555s-37.65 16.814-37.65 37.555c0 20.741 16.856 37.555 37.65 37.555s37.65-16.814 37.65-37.555zM638.785 460.526c0-20.741-16.856-37.555-37.65-37.555s-37.65 16.814-37.65 37.555c0 20.741 16.856 37.555 37.65 37.555s37.65-16.814 37.65-37.555zM776.859 460.526c0-20.741-16.856-37.555-37.65-37.555s-37.65 16.814-37.65 37.555c0 20.741 16.856 37.555 37.65 37.555s37.65-16.814 37.65-37.555zM500.736 460.526c0-20.741-16.856-37.555-37.65-37.555s-37.65 16.814-37.65 37.555c0 20.741 16.856 37.555 37.65 37.555s37.65-16.814 37.65-37.555zM224.613 322.834c0-20.741-16.856-37.555-37.65-37.555s-37.65 16.814-37.65 37.555c0 20.741 16.856 37.555 37.65 37.555s37.65-16.814 37.65-37.555zM362.687 322.834c0-20.741-16.856-37.555-37.65-37.555s-37.65 16.814-37.65 37.555c0 20.741 16.856 37.555 37.65 37.555s37.65-16.814 37.65-37.555zM500.736 322.834c0-20.741-16.856-37.555-37.65-37.555s-37.65 16.814-37.65 37.555c0 20.741 16.856 37.555 37.65 37.555s37.65-16.814 37.65-37.555zM224.613 185.142c0-20.741-16.856-37.555-37.65-37.555s-37.65 16.814-37.65 37.555c0 20.741 16.856 37.555 37.65 37.555s37.65-16.814 37.65-37.555zM362.687 185.142c0-20.741-16.856-37.555-37.65-37.555s-37.65 16.814-37.65 37.555c0 20.741 16.856 37.555 37.65 37.555s37.65-16.814 37.65-37.555zM500.736 185.142c0-20.741-16.856-37.555-37.65-37.555s-37.65 16.814-37.65 37.555c0 20.741 16.856 37.555 37.65 37.555s37.65-16.814 37.65-37.555zM74.014 9.895h495.759c-6.287 7.501-11.312 16.265-16.313 25.005h-479.446c-13.812 0-25.1 11.288-25.1 25.052v550.769h828.345v-254.095c8.787-5.001 17.575-10.002 25.1-16.289v433.128c-0.135 27.641-22.547 50.003-50.195 50.057h-175.728c0-8.764 1.262-17.527 2.524-25.028h173.199c13.812 0 25.1-11.264 25.1-25.028v-137.692h-828.345v137.692c0 13.764 11.288 25.005 25.1 25.005h101.662c-1.262 7.525-1.262 16.289-1.262 25.052h-100.4c-27.624 0.024-50.2-22.528-50.2-50.057v-713.514c0-27.529 22.599-50.057 50.2-50.057zM877.258 297.782c-30.737 23.441-69.683 37.557-111.927 37.557-0.36 0-0.719-0.001-1.078-0.003h0.055c-104.186 0-188.273-83.873-188.273-187.749 0-42.579 13.812-81.372 37.65-112.664 6.287-8.764 13.812-17.527 22.599-25.028 33.149-31.028 77.839-50.084 126.98-50.084 0.367 0 0.734 0.001 1.101 0.003h-0.056c104.162 0 188.249 83.873 188.249 187.773 0 48.819-18.813 93.875-50.2 127.667-7.525 7.525-16.313 15.003-25.1 22.528zM902.358 61.214c-12.703-21.334-30.068-38.661-50.773-50.953l-0.665-0.366c-24.244-15.713-53.885-25.055-85.709-25.055-0.317 0-0.635 0.001-0.952 0.003h0.049c-0.268-0.002-0.585-0.003-0.903-0.003-31.823 0-61.464 9.342-86.331 25.432l0.623-0.377c-11.786 7.629-22.046 15.869-31.395 25.036l0.032-0.031c-27.974 29.228-45.196 68.946-45.199 112.687v0.001c0 0.029 0 0.062 0 0.096 0 89.816 72.81 162.625 162.625 162.625 0.193 0 0.385 0 0.578-0.001h-0.030c43.913 0 84.063-17.527 112.95-45.056 10.026-8.764 17.575-20.028 25.1-31.292 15.741-24.16 25.102-53.728 25.102-85.483 0-0.313-0.001-0.626-0.003-0.939v0.048c0.002-0.265 0.003-0.577 0.003-0.89 0-31.754-9.362-61.322-25.475-86.094l0.373 0.612zM708.036 126.94l86.969 86.73 35.483-35.388-86.969-86.754zM803.007 221.815l24.838 24.767 35.483-35.388-24.838-24.79zM682.722 66.215l51.438 16.265-35.126 35.054z" />
</font>
</defs>
</svg>
