<svg width="19" height="21" viewBox="0 0 19 21" fill="none" xmlns="http://www.w3.org/2000/svg">
<path opacity="0.5" fill-rule="evenodd" clip-rule="evenodd" d="M12.7013 17.5678L6.64363 17.5678C4.97084 17.5678 3.61478 16.2117 3.61478 14.5389L3.61478 5.45237C3.05719 5.45237 2.60517 5.90439 2.60517 6.46199V17.5678C2.60517 18.1254 3.05719 18.5774 3.61478 18.5774H11.6917C12.2493 18.5774 12.7013 18.1254 12.7013 17.5678ZM13.7094 15.5485L6.64363 15.5485C6.08604 15.5485 5.63402 15.0965 5.63402 14.5389L5.63401 4.44276V3.43314C5.63401 2.87555 6.08604 2.42353 6.64363 2.42353L11.1869 2.42353L13.4905 2.42353C13.7901 2.42353 14.0743 2.55662 14.2661 2.7868L15.2254 3.93795L16.4967 5.42121C16.6536 5.6042 16.7398 5.83725 16.7398 6.07826V8.98603L16.7398 14.5389C16.7398 15.0965 16.2878 15.5485 15.7302 15.5485H13.7125L13.7109 15.5485L13.7094 15.5485ZM14.7206 17.5678C14.7206 19.2405 13.3645 20.5966 11.6917 20.5966H3.61478C1.942 20.5966 0.585938 19.2405 0.585938 17.5678V6.46199C0.585938 4.7892 1.942 3.43314 3.61478 3.43314C3.61478 1.76036 4.97084 0.404297 6.64363 0.404297H11.1869H13.4905C14.3894 0.404297 15.2418 0.803568 15.8173 1.49412L16.7676 2.63451L18.0298 4.10711C18.5004 4.65607 18.759 5.35524 18.759 6.07826V8.98603V14.5389C18.759 16.2117 17.403 17.5678 15.7302 17.5678L14.7206 17.5678ZM7.65325 5.45237C7.65325 4.89478 8.10527 4.44276 8.66286 4.44276H12.7013C13.2589 4.44276 13.7109 4.89478 13.7109 5.45237C13.7109 6.00997 13.2589 6.46199 12.7013 6.46199H8.66286C8.10527 6.46199 7.65325 6.00997 7.65325 5.45237ZM8.66286 7.97641C8.10527 7.97641 7.65325 8.42843 7.65325 8.98603C7.65325 9.54362 8.10527 9.99564 8.66286 9.99564H13.7109C14.2685 9.99564 14.7206 9.54362 14.7206 8.98603C14.7206 8.42843 14.2685 7.97641 13.7109 7.97641H8.66286ZM7.65325 12.5197C7.65325 11.9621 8.10527 11.5101 8.66286 11.5101H13.7109C14.2685 11.5101 14.7206 11.9621 14.7206 12.5197C14.7206 13.0773 14.2685 13.5293 13.7109 13.5293H8.66286C8.10527 13.5293 7.65325 13.0773 7.65325 12.5197Z" fill="#FF8D1A"/>
</svg>
