<svg width="20" height="18" viewBox="0 0 20 18" fill="none" xmlns="http://www.w3.org/2000/svg">
<path fill-rule="evenodd" clip-rule="evenodd" d="M17.4071 2.64289C16.1109 1.34664 13.8162 0 11 0C8.19161 0 5.94562 1.29016 4.64289 2.59289C3.555 3.68078 2.43162 5.47193 2.09858 7.68437L1.70711 7.29289C1.31658 6.90237 0.683417 6.90237 0.292893 7.29289C-0.0976311 7.68342 -0.0976311 8.31658 0.292893 8.70711L2.29289 10.7071C2.6532 11.0674 3.2268 11.0992 3.6247 10.7809L6.12469 8.78087C6.55596 8.43586 6.62588 7.80657 6.28087 7.37531C5.93586 6.94404 5.30657 6.87412 4.87531 7.21913L4.09968 7.83963C4.38561 6.18017 5.24044 4.82377 6.05711 4.00711C7.05057 3.01364 8.80838 2 11 2C13.1838 2 14.9929 3.05716 15.9929 4.05711C16.9864 5.05057 18 6.80838 18 9C18 11.1838 16.9428 12.9929 15.9429 13.9929C14.9494 14.9864 13.1916 16 11 16C10.4477 16 10 16.4477 10 17C10 17.5523 10.4477 18 11 18C13.8084 18 16.0544 16.7098 17.3571 15.4071C18.6534 14.1109 20 11.8162 20 9C20 6.19161 18.7098 3.94562 17.4071 2.64289ZM11 5.5C11 4.94772 10.5523 4.5 10 4.5C9.44771 4.5 9 4.94772 9 5.5V9.875C9 10.1634 9.12448 10.4377 9.3415 10.6276L12.3415 13.2526C12.7571 13.6163 13.3889 13.5741 13.7526 13.1585C14.1163 12.7429 14.0741 12.1111 13.6585 11.7474L11 9.42123V5.5Z" fill="#FF8D1A"/>
</svg>
